<svg width="81" height="18" viewBox="0 0 81 18" fill="none" xmlns="http://www.w3.org/2000/svg">
<circle cx="9" cy="9" r="9" fill="url(#paint0_linear_9_3)"/>
<path d="M22.52 14C22.4133 14 22.36 13.9467 22.36 13.84V3.68C22.36 3.57333 22.4133 3.52 22.52 3.52H23.56C23.6667 3.52 23.72 3.57333 23.72 3.68V12.768H28.136C28.2427 12.768 28.296 12.8213 28.296 12.928V13.84C28.296 13.9467 28.2427 14 28.136 14H22.52ZM33.4016 14.192C32.0683 14.192 31.071 13.8667 30.4096 13.216C29.759 12.5547 29.4336 11.6267 29.4336 10.432V7.088C29.4336 5.88267 29.759 4.95467 30.4096 4.304C31.071 3.65333 32.0683 3.328 33.4016 3.328C34.735 3.328 35.727 3.65333 36.3776 4.304C37.039 4.95467 37.3696 5.88267 37.3696 7.088V10.432C37.3696 11.6267 37.039 12.5547 36.3776 13.216C35.727 13.8667 34.735 14.192 33.4016 14.192ZM33.4016 12.992C34.255 12.992 34.9003 12.7733 35.3376 12.336C35.7856 11.8987 36.0096 11.2587 36.0096 10.416V7.104C36.0096 6.25067 35.7856 5.61067 35.3376 5.184C34.9003 4.74667 34.255 4.528 33.4016 4.528C32.559 4.528 31.9136 4.74667 31.4656 5.184C31.0176 5.61067 30.7936 6.25067 30.7936 7.104V10.416C30.7936 11.2587 31.0176 11.8987 31.4656 12.336C31.9136 12.7733 32.559 12.992 33.4016 12.992ZM43.4273 14.192C42.6486 14.192 41.9819 14.0427 41.4273 13.744C40.8726 13.4453 40.4459 13.0187 40.1473 12.464C39.8486 11.8987 39.6993 11.2213 39.6993 10.432V7.088C39.6993 5.91467 40.0566 4.99733 40.7713 4.336C41.4859 3.664 42.4673 3.328 43.7153 3.328C44.5579 3.328 45.2833 3.472 45.8913 3.76C46.5099 4.03733 46.9686 4.432 47.2673 4.944C47.5766 5.456 47.6779 6.064 47.5712 6.768C47.5606 6.87467 47.5019 6.928 47.3953 6.928H46.3553C46.2379 6.928 46.1899 6.87467 46.2113 6.768C46.2433 6.27733 46.1686 5.86667 45.9873 5.536C45.8059 5.20533 45.5286 4.95467 45.1553 4.784C44.7819 4.61333 44.3126 4.528 43.7473 4.528C42.8619 4.528 42.1899 4.74133 41.7313 5.168C41.2833 5.59467 41.0593 6.22933 41.0593 7.072V10.448C41.0593 11.3013 41.2726 11.9413 41.6993 12.368C42.1259 12.784 42.7713 12.992 43.6353 12.992C44.5206 12.992 45.1926 12.7733 45.6513 12.336C46.1206 11.8987 46.3553 11.2693 46.3553 10.448V9.84H43.8593C43.7526 9.84 43.6993 9.78667 43.6993 9.68V8.816C43.6993 8.70933 43.7526 8.656 43.8593 8.656H47.4593C47.5126 8.656 47.5499 8.672 47.5712 8.704C47.6033 8.72533 47.6193 8.76267 47.6193 8.816V11.968C47.6193 12.2987 47.6246 12.6187 47.6353 12.928C47.6566 13.2267 47.6886 13.5253 47.7313 13.824C47.7419 13.8773 47.7313 13.92 47.6993 13.952C47.6779 13.984 47.6406 14 47.5873 14H46.7393C46.6966 14 46.6593 13.9893 46.6273 13.968C46.5953 13.9467 46.5739 13.9147 46.5633 13.872C46.5419 13.7333 46.5206 13.5787 46.4993 13.408C46.4779 13.2373 46.4619 13.056 46.4513 12.864H46.4353C46.2326 13.1627 45.9766 13.4133 45.6673 13.616C45.3686 13.808 45.0273 13.952 44.6433 14.048C44.2699 14.144 43.8646 14.192 43.4273 14.192ZM54.1204 14.192C52.787 14.192 51.7897 13.8667 51.1284 13.216C50.4777 12.5547 50.1524 11.6267 50.1524 10.432V7.088C50.1524 5.88267 50.4777 4.95467 51.1284 4.304C51.7897 3.65333 52.787 3.328 54.1204 3.328C55.4537 3.328 56.4457 3.65333 57.0964 4.304C57.7577 4.95467 58.0884 5.88267 58.0884 7.088V10.432C58.0884 11.6267 57.7577 12.5547 57.0964 13.216C56.4457 13.8667 55.4537 14.192 54.1204 14.192ZM54.1204 12.992C54.9737 12.992 55.619 12.7733 56.0564 12.336C56.5044 11.8987 56.7284 11.2587 56.7284 10.416V7.104C56.7284 6.25067 56.5044 5.61067 56.0564 5.184C55.619 4.74667 54.9737 4.528 54.1204 4.528C53.2777 4.528 52.6324 4.74667 52.1844 5.184C51.7364 5.61067 51.5124 6.25067 51.5124 7.104V10.416C51.5124 11.2587 51.7364 11.8987 52.1844 12.336C52.6324 12.7733 53.2777 12.992 54.1204 12.992Z" fill="white"/>
<defs>
<linearGradient id="paint0_linear_9_3" x1="2.5" y1="2.5" x2="15" y2="16" gradientUnits="userSpaceOnUse">
<stop stop-color="#5DDAB6"/>
<stop offset="0.641736" stop-color="#517CCB"/>
<stop offset="0.820868" stop-color="#8250D9"/>
</linearGradient>
</defs>
</svg>
