<svg xmlns="http://www.w3.org/2000/svg" xmlns:xlink="http://www.w3.org/1999/xlink" width="500" zoomAndPan="magnify" viewBox="0 0 375 374.999991" height="500" preserveAspectRatio="xMidYMid meet" version="1.0"><path fill="#ffffff" d="M 274.503906 101.457031 C 291.539062 106.699219 305.695312 120.714844 310.769531 139.644531 C 315.84375 158.578125 310.589844 177.792969 298.457031 190.863281 C 294.796875 194.792969 295.015625 200.957031 298.960938 204.617188 C 302.894531 208.261719 309.058594 208.042969 312.714844 204.109375 C 329.183594 186.371094 336.460938 160.316406 329.570312 134.613281 C 322.683594 108.90625 303.347656 89.976562 280.210938 82.863281 C 275.085938 81.28125 269.636719 84.160156 268.054688 89.300781 C 266.46875 94.4375 269.363281 99.886719 274.503906 101.457031 Z M 274.503906 101.457031 " fill-opacity="1" fill-rule="evenodd"/><path fill="#ffffff" d="M 283.417969 65.542969 C 312.195312 74.234375 336.292969 98.148438 344.960938 130.484375 C 354.003906 164.234375 343.910156 198.4375 321.382812 220.289062 C 317.53125 224.039062 317.4375 230.203125 321.191406 234.058594 C 324.925781 237.910156 331.089844 238.003906 334.945312 234.265625 C 362.246094 207.757812 374.714844 166.363281 363.761719 125.449219 C 353.265625 86.265625 323.914062 57.445312 289.035156 46.910156 C 283.898438 45.363281 278.460938 48.269531 276.917969 53.410156 C 275.359375 58.558594 278.277344 63.996094 283.417969 65.542969 Z M 283.417969 65.542969 " fill-opacity="1" fill-rule="evenodd"/><path fill="#ffffff" d="M 237.105469 67.125 C 234.019531 55.628906 225.402344 46.429688 214.140625 42.585938 C 202.863281 38.746094 190.433594 40.785156 180.972656 48.011719 C 138.113281 80.761719 65.683594 136.105469 65.683594 136.105469 C 62.542969 138.503906 61.167969 142.550781 62.179688 146.355469 L 92.710938 260.269531 C 93.722656 264.082031 96.941406 266.898438 100.859375 267.40625 C 100.859375 267.40625 191.261719 279.121094 244.75 286.050781 C 256.558594 287.582031 268.351562 283.121094 276.1875 274.164062 C 284.027344 265.210938 286.882812 252.925781 283.804688 241.429688 Z M 218.304688 72.171875 L 265.003906 246.460938 C 266.40625 251.691406 265.109375 257.273438 261.539062 261.347656 C 257.984375 265.421875 252.613281 267.445312 247.253906 266.742188 L 109.828125 248.941406 C 109.828125 248.941406 82.667969 147.613281 82.667969 147.613281 C 82.667969 147.613281 192.78125 63.476562 192.78125 63.476562 C 197.089844 60.195312 202.734375 59.261719 207.859375 61.011719 C 212.984375 62.75 216.902344 66.941406 218.304688 72.171875 Z M 218.304688 72.171875 " fill-opacity="1" fill-rule="evenodd"/><path fill="#ffffff" d="M 80.980469 141.320312 C 79.59375 136.128906 74.261719 133.054688 69.070312 134.441406 C 69.070312 134.441406 47.867188 140.113281 29.816406 144.953125 C 10.78125 150.050781 -0.519531 169.621094 4.582031 188.65625 C 9.667969 207.601562 16.597656 233.488281 21.667969 252.429688 C 26.769531 271.46875 46.335938 282.769531 65.371094 277.667969 C 83.433594 272.828125 104.625 267.144531 104.625 267.144531 C 109.8125 265.757812 112.902344 260.425781 111.515625 255.234375 Z M 64.710938 155.761719 L 90.195312 250.875 C 90.195312 250.875 60.335938 258.867188 60.335938 258.867188 C 51.683594 261.191406 42.792969 256.050781 40.472656 247.398438 C 35.398438 228.453125 28.457031 202.566406 23.382812 183.621094 C 21.074219 174.964844 26.199219 166.078125 34.851562 163.753906 Z M 64.710938 155.761719 " fill-opacity="1" fill-rule="evenodd"/><path fill="#ffffff" d="M 111.035156 253.871094 C 109.113281 249.460938 104.246094 247.097656 99.589844 248.355469 L 62.671875 258.246094 C 60.066406 258.945312 57.859375 260.695312 56.601562 263.070312 C 55.328125 265.460938 55.109375 268.261719 55.992188 270.816406 C 55.992188 270.816406 69.097656 308.835938 77.671875 333.710938 C 83.421875 350.398438 101.121094 359.804688 118.171875 355.238281 L 118.195312 355.226562 C 126.476562 353.007812 133.378906 347.296875 137.101562 339.578125 C 140.824219 331.871094 141.007812 322.902344 137.59375 315.050781 Z M 96.527344 269.324219 L 119.742188 322.800781 C 120.894531 325.460938 120.832031 328.507812 119.570312 331.117188 C 118.3125 333.738281 115.964844 335.671875 113.160156 336.425781 C 113.160156 336.425781 113.136719 336.4375 113.136719 336.4375 C 105.945312 338.355469 98.5 334.398438 96.074219 327.367188 C 96.074219 327.367188 77.789062 274.347656 77.789062 274.347656 Z M 96.527344 269.324219 " fill-opacity="1" fill-rule="evenodd"/></svg>