<svg xmlns="http://www.w3.org/2000/svg" xmlns:xlink="http://www.w3.org/1999/xlink" width="500" zoomAndPan="magnify" viewBox="0 0 375 374.999991" height="500" preserveAspectRatio="xMidYMid meet" version="1.0"><defs><clipPath id="878f313b16"><path d="M 194 93.957031 L 316 93.957031 L 316 199 L 194 199 Z M 194 93.957031 " clip-rule="nonzero"/></clipPath><clipPath id="3bdf30cec6"><path d="M 66 93.957031 L 181 93.957031 L 181 193 L 66 193 Z M 66 93.957031 " clip-rule="nonzero"/></clipPath><clipPath id="9929b3743a"><path d="M 9.746094 151 L 107 151 L 107 271 L 9.746094 271 Z M 9.746094 151 " clip-rule="nonzero"/></clipPath><clipPath id="712380bf2e"><path d="M 273 158 L 365.246094 158 L 365.246094 271 L 273 271 Z M 273 158 " clip-rule="nonzero"/></clipPath><clipPath id="bf8f8536a2"><path d="M 162 217 L 331 217 L 331 280.707031 L 162 280.707031 Z M 162 217 " clip-rule="nonzero"/></clipPath></defs><g clip-path="url(#878f313b16)"><path fill="#ffffff" d="M 194.566406 93.957031 L 194.566406 165.277344 C 222.132812 167.085938 246.824219 179.554688 264.554688 198.546875 L 315.171875 147.925781 C 284.398438 116.125 241.839844 95.804688 194.566406 93.957031 Z M 194.566406 93.957031 " fill-opacity="1" fill-rule="nonzero"/></g><g clip-path="url(#3bdf30cec6)"><path fill="#ffffff" d="M 66.105469 141.742188 L 116.722656 192.363281 C 133.800781 176.855469 155.96875 166.882812 180.460938 165.277344 L 180.460938 93.957031 C 136.296875 95.699219 96.265625 113.53125 66.105469 141.742188 Z M 66.105469 141.742188 " fill-opacity="1" fill-rule="nonzero"/></g><g clip-path="url(#9929b3743a)"><path fill="#ffffff" d="M 9.746094 270.992188 L 82.15625 270.992188 C 82.15625 270.785156 82.15625 270.617188 82.15625 270.410156 C 82.15625 244.554688 91.484375 220.882812 106.921875 202.542969 L 56.164062 151.785156 C 27.4375 183.242188 9.882812 225.085938 9.746094 270.992188 Z M 9.746094 270.992188 " fill-opacity="1" fill-rule="nonzero"/></g><g clip-path="url(#712380bf2e)"><path fill="#ffffff" d="M 365.246094 270.992188 C 365.109375 228.226562 349.875 189.050781 324.601562 158.445312 L 273.535156 209.542969 C 285.730469 226.726562 292.867188 247.730469 292.867188 270.410156 C 292.867188 270.617188 292.867188 270.785156 292.867188 270.992188 Z M 365.246094 270.992188 " fill-opacity="1" fill-rule="nonzero"/></g><g clip-path="url(#bf8f8536a2)"><path fill="#ffffff" d="M 330.75 217.09375 L 253.007812 234.957031 L 184.492188 250.703125 C 182.613281 249.917969 180.527344 249.472656 178.34375 249.472656 C 169.632812 249.472656 162.5625 256.542969 162.5625 265.253906 C 162.5625 273.964844 169.632812 281.035156 178.34375 281.035156 C 183.363281 281.035156 187.835938 278.675781 190.707031 275.054688 L 257.039062 247.558594 Z M 330.75 217.09375 " fill-opacity="1" fill-rule="nonzero"/></g></svg>