<svg xmlns="http://www.w3.org/2000/svg" xmlns:xlink="http://www.w3.org/1999/xlink" width="500" zoomAndPan="magnify" viewBox="0 0 375 374.999991" height="500" preserveAspectRatio="xMidYMid meet" version="1.0"><defs><clipPath id="293ef07530"><path d="M 3 11 L 373 11 L 373 367.910156 L 3 367.910156 Z M 3 11 " clip-rule="nonzero"/></clipPath></defs><g clip-path="url(#293ef07530)"><path fill="#ffffff" d="M 336.171875 367.3125 C 336.863281 367.316406 337.550781 367.296875 338.238281 367.257812 C 338.929688 367.222656 339.617188 367.164062 340.300781 367.085938 C 340.988281 367.007812 341.667969 366.910156 342.347656 366.792969 C 343.027344 366.671875 343.703125 366.535156 344.375 366.378906 C 345.046875 366.222656 345.714844 366.046875 346.375 365.851562 C 347.039062 365.65625 347.691406 365.441406 348.34375 365.210938 C 348.992188 364.976562 349.632812 364.726562 350.265625 364.453125 C 350.902344 364.183594 351.527344 363.894531 352.144531 363.589844 C 352.765625 363.28125 353.371094 362.957031 353.972656 362.617188 C 354.570312 362.273438 355.160156 361.914062 355.738281 361.539062 C 356.316406 361.164062 356.882812 360.773438 357.4375 360.363281 C 357.996094 359.953125 358.539062 359.53125 359.070312 359.089844 C 359.601562 358.648438 360.117188 358.195312 360.621094 357.722656 C 361.128906 357.253906 361.617188 356.769531 362.09375 356.269531 C 362.570312 355.773438 363.035156 355.261719 363.480469 354.734375 C 363.929688 354.210938 364.359375 353.671875 364.777344 353.121094 C 365.191406 352.570312 365.589844 352.011719 365.972656 351.4375 C 366.359375 350.863281 366.722656 350.28125 367.074219 349.683594 C 367.421875 349.089844 367.757812 348.484375 368.070312 347.871094 C 368.386719 347.257812 368.683594 346.636719 368.960938 346.003906 C 369.238281 345.375 369.5 344.734375 369.742188 344.089844 C 369.984375 343.445312 370.207031 342.792969 370.410156 342.132812 C 370.613281 341.472656 370.796875 340.808594 370.964844 340.140625 C 371.128906 339.46875 371.273438 338.796875 371.402344 338.117188 C 371.527344 337.441406 371.632812 336.757812 371.722656 336.074219 C 371.808594 335.390625 371.875 334.703125 371.921875 334.015625 C 371.96875 333.328125 371.996094 332.636719 372.003906 331.949219 C 372.011719 331.257812 372 330.570312 371.96875 329.878906 C 371.933594 329.191406 371.882812 328.503906 371.808594 327.816406 C 371.738281 327.132812 371.644531 326.449219 371.535156 325.769531 C 371.421875 325.085938 371.289062 324.410156 371.140625 323.738281 C 370.988281 323.066406 370.820312 322.398438 370.628906 321.734375 C 370.4375 321.070312 370.230469 320.414062 370.003906 319.761719 C 369.773438 319.109375 369.527344 318.46875 369.261719 317.828125 C 369 317.191406 368.714844 316.566406 368.414062 315.945312 C 368.113281 315.324219 367.792969 314.710938 367.457031 314.109375 C 367.121094 313.507812 366.765625 312.917969 366.394531 312.335938 C 366.023438 311.753906 365.636719 311.183594 365.234375 310.625 C 364.828125 310.066406 364.410156 309.519531 363.972656 308.984375 C 363.539062 308.449219 363.085938 307.925781 362.621094 307.417969 C 362.15625 306.910156 361.675781 306.414062 361.179688 305.933594 C 360.6875 305.453125 360.175781 304.988281 359.65625 304.535156 C 359.132812 304.085938 358.601562 303.648438 358.054688 303.226562 C 357.507812 302.808594 356.949219 302.402344 356.378906 302.015625 C 355.808594 301.625 355.226562 301.253906 354.636719 300.898438 C 354.042969 300.546875 353.441406 300.207031 352.832031 299.890625 C 352.21875 299.570312 351.601562 299.265625 350.972656 298.984375 C 350.34375 298.699219 349.707031 298.433594 349.0625 298.1875 C 348.417969 297.941406 347.769531 297.710938 347.109375 297.5 C 346.453125 297.292969 345.789062 297.101562 345.121094 296.929688 C 344.453125 296.761719 343.78125 296.609375 343.105469 296.476562 C 342.429688 296.34375 341.746094 296.230469 341.0625 296.140625 C 340.378906 296.046875 339.695312 295.972656 339.007812 295.921875 C 338.320312 295.867188 337.628906 295.835938 336.941406 295.820312 C 336.25 295.808594 335.5625 295.816406 334.871094 295.839844 C 334.183594 295.867188 333.496094 295.914062 332.808594 295.980469 C 332.121094 296.046875 331.4375 296.132812 330.757812 296.238281 C 330.074219 296.347656 329.398438 296.472656 328.722656 296.617188 C 328.050781 296.761719 327.378906 296.925781 326.714844 297.113281 C 326.050781 297.296875 325.390625 297.5 324.738281 297.722656 C 324.085938 297.945312 323.4375 298.183594 322.800781 298.445312 C 322.160156 298.703125 321.53125 298.980469 320.90625 299.277344 C 320.285156 299.574219 319.671875 299.886719 319.066406 300.21875 C 318.460938 300.550781 317.867188 300.898438 317.28125 301.265625 L 234.054688 217.898438 C 235.257812 216.355469 236.394531 214.761719 237.457031 213.117188 C 238.519531 211.472656 239.503906 209.785156 240.414062 208.050781 C 241.324219 206.320312 242.152344 204.546875 242.902344 202.738281 C 243.652344 200.929688 244.316406 199.09375 244.902344 197.222656 C 245.484375 195.355469 245.980469 193.464844 246.390625 191.550781 C 246.804688 189.636719 247.128906 187.707031 247.363281 185.765625 C 247.601562 183.820312 247.75 181.871094 247.8125 179.914062 C 247.871094 177.957031 247.84375 176.003906 247.726562 174.046875 C 247.609375 172.09375 247.40625 170.148438 247.113281 168.214844 C 246.820312 166.277344 246.441406 164.359375 245.976562 162.460938 C 245.511719 160.558594 244.960938 158.679688 244.324219 156.832031 C 243.6875 154.980469 242.96875 153.160156 242.167969 151.375 C 241.367188 149.585938 240.488281 147.839844 239.53125 146.132812 C 238.570312 144.425781 237.539062 142.765625 236.429688 141.152344 C 235.320312 139.539062 234.140625 137.980469 232.890625 136.476562 C 231.640625 134.96875 230.324219 133.519531 228.941406 132.132812 L 265.738281 85.117188 C 266.394531 85.425781 267.058594 85.710938 267.734375 85.980469 C 268.40625 86.246094 269.085938 86.492188 269.773438 86.71875 C 270.464844 86.945312 271.15625 87.148438 271.859375 87.332031 C 272.558594 87.515625 273.265625 87.675781 273.976562 87.816406 C 274.6875 87.957031 275.398438 88.078125 276.117188 88.171875 C 276.835938 88.269531 277.554688 88.347656 278.277344 88.398438 C 279 88.453125 279.722656 88.484375 280.449219 88.492188 C 281.171875 88.503906 281.894531 88.488281 282.621094 88.457031 C 283.34375 88.421875 284.066406 88.363281 284.785156 88.285156 C 285.503906 88.207031 286.222656 88.109375 286.9375 87.984375 C 287.648438 87.863281 288.359375 87.71875 289.066406 87.554688 C 289.769531 87.390625 290.46875 87.203125 291.164062 86.996094 C 291.855469 86.789062 292.542969 86.558594 293.222656 86.3125 C 293.90625 86.0625 294.574219 85.792969 295.238281 85.5 C 295.902344 85.210938 296.558594 84.902344 297.203125 84.570312 C 297.847656 84.242188 298.480469 83.894531 299.105469 83.523438 C 299.730469 83.15625 300.339844 82.769531 300.941406 82.363281 C 301.539062 81.957031 302.128906 81.535156 302.703125 81.09375 C 303.277344 80.652344 303.835938 80.195312 304.382812 79.71875 C 304.929688 79.242188 305.460938 78.753906 305.980469 78.246094 C 306.496094 77.738281 306.996094 77.214844 307.480469 76.675781 C 307.964844 76.136719 308.433594 75.585938 308.886719 75.019531 C 309.335938 74.453125 309.769531 73.875 310.1875 73.28125 C 310.605469 72.6875 311 72.082031 311.382812 71.464844 C 311.761719 70.851562 312.121094 70.222656 312.460938 69.582031 C 312.804688 68.945312 313.125 68.296875 313.425781 67.636719 C 313.730469 66.980469 314.011719 66.3125 314.273438 65.636719 C 314.535156 64.960938 314.773438 64.277344 314.992188 63.589844 C 315.214844 62.898438 315.414062 62.203125 315.589844 61.5 C 315.769531 60.796875 315.925781 60.089844 316.058594 59.378906 C 316.195312 58.667969 316.308594 57.953125 316.398438 57.234375 C 316.488281 56.515625 316.558594 55.792969 316.605469 55.070312 C 316.652344 54.347656 316.679688 53.625 316.683594 52.902344 C 316.6875 52.175781 316.667969 51.453125 316.628906 50.730469 C 316.585938 50.007812 316.523438 49.285156 316.441406 48.566406 C 316.355469 47.847656 316.25 47.128906 316.121094 46.417969 C 315.996094 45.703125 315.84375 44.996094 315.675781 44.292969 C 315.503906 43.589844 315.3125 42.890625 315.097656 42.199219 C 314.886719 41.507812 314.652344 40.820312 314.398438 40.144531 C 314.140625 39.464844 313.867188 38.796875 313.570312 38.132812 C 313.277344 37.472656 312.960938 36.820312 312.625 36.179688 C 312.289062 35.535156 311.9375 34.90625 311.5625 34.285156 C 311.1875 33.664062 310.796875 33.054688 310.386719 32.457031 C 309.976562 31.863281 309.546875 31.277344 309.101562 30.707031 C 308.65625 30.136719 308.195312 29.578125 307.714844 29.039062 C 307.234375 28.496094 306.738281 27.96875 306.226562 27.453125 C 305.714844 26.941406 305.1875 26.445312 304.648438 25.964844 C 304.105469 25.484375 303.550781 25.019531 302.980469 24.574219 C 302.410156 24.125 301.824219 23.699219 301.230469 23.285156 C 300.632812 22.875 300.027344 22.480469 299.40625 22.109375 C 298.785156 21.734375 298.15625 21.378906 297.511719 21.042969 C 296.871094 20.707031 296.21875 20.390625 295.558594 20.09375 C 294.898438 19.796875 294.230469 19.519531 293.550781 19.265625 C 292.875 19.007812 292.191406 18.773438 291.496094 18.558594 C 290.804688 18.34375 290.109375 18.152344 289.40625 17.980469 C 288.699219 17.808594 287.992188 17.65625 287.28125 17.527344 C 286.566406 17.398438 285.851562 17.292969 285.132812 17.207031 C 284.414062 17.121094 283.691406 17.058594 282.96875 17.015625 C 282.246094 16.972656 281.523438 16.953125 280.796875 16.957031 C 280.074219 16.960938 279.351562 16.984375 278.628906 17.03125 C 277.902344 17.074219 277.183594 17.144531 276.464844 17.234375 C 275.746094 17.324219 275.03125 17.4375 274.320312 17.570312 C 273.605469 17.703125 272.898438 17.859375 272.199219 18.035156 C 271.496094 18.210938 270.796875 18.410156 270.109375 18.628906 C 269.417969 18.847656 268.734375 19.085938 268.058594 19.347656 C 267.382812 19.605469 266.714844 19.886719 266.054688 20.1875 C 265.398438 20.488281 264.75 20.808594 264.109375 21.148438 C 263.46875 21.488281 262.839844 21.847656 262.222656 22.226562 C 261.605469 22.605469 261 23.003906 260.40625 23.417969 C 259.8125 23.832031 259.234375 24.265625 258.667969 24.714844 C 258.097656 25.167969 257.546875 25.632812 257.007812 26.117188 C 256.46875 26.601562 255.945312 27.101562 255.4375 27.617188 C 254.929688 28.132812 254.4375 28.664062 253.960938 29.210938 C 253.484375 29.757812 253.023438 30.316406 252.582031 30.890625 C 252.140625 31.464844 251.714844 32.050781 251.308594 32.648438 C 250.902344 33.25 250.515625 33.859375 250.144531 34.484375 C 249.777344 35.105469 249.425781 35.738281 249.09375 36.382812 C 248.765625 37.027344 248.453125 37.683594 248.160156 38.34375 C 247.871094 39.007812 247.597656 39.679688 247.347656 40.359375 C 247.097656 41.039062 246.871094 41.726562 246.660156 42.417969 C 246.453125 43.113281 246.265625 43.8125 246.097656 44.515625 C 245.933594 45.222656 245.789062 45.929688 245.664062 46.644531 C 245.539062 47.359375 245.441406 48.074219 245.359375 48.796875 C 245.28125 49.515625 245.222656 50.238281 245.1875 50.960938 C 245.152344 51.683594 245.136719 52.40625 245.144531 53.132812 C 245.152344 53.855469 245.183594 54.578125 245.234375 55.300781 C 245.289062 56.023438 245.363281 56.746094 245.457031 57.460938 C 245.554688 58.179688 245.671875 58.894531 245.8125 59.605469 C 245.949219 60.316406 246.109375 61.023438 246.292969 61.722656 C 246.476562 62.425781 246.679688 63.121094 246.902344 63.808594 C 247.128906 64.496094 247.371094 65.179688 247.636719 65.851562 C 247.902344 66.523438 248.191406 67.191406 248.496094 67.847656 C 248.800781 68.503906 249.128906 69.148438 249.472656 69.785156 C 249.820312 70.421875 250.183594 71.046875 250.566406 71.664062 C 250.949219 72.277344 251.351562 72.878906 251.773438 73.46875 C 252.191406 74.058594 252.628906 74.636719 253.085938 75.199219 L 216.25 122.214844 C 214.855469 121.378906 213.433594 120.59375 211.984375 119.867188 C 210.535156 119.136719 209.058594 118.460938 207.554688 117.839844 C 206.054688 117.222656 204.53125 116.660156 202.988281 116.15625 C 201.445312 115.648438 199.886719 115.203125 198.308594 114.816406 C 196.730469 114.429688 195.140625 114.101562 193.539062 113.832031 C 191.9375 113.5625 190.328125 113.355469 188.710938 113.207031 C 187.09375 113.0625 185.472656 112.976562 183.847656 112.949219 C 182.226562 112.921875 180.601562 112.957031 178.980469 113.054688 C 177.359375 113.152344 175.746094 113.308594 174.136719 113.527344 C 172.527344 113.742188 170.925781 114.019531 169.339844 114.359375 C 167.75 114.695312 166.175781 115.09375 164.617188 115.550781 C 163.058594 116.003906 161.519531 116.519531 160 117.089844 C 158.476562 117.664062 156.980469 118.289062 155.507812 118.972656 C 154.035156 119.65625 152.589844 120.394531 151.171875 121.1875 C 149.753906 121.980469 148.371094 122.824219 147.015625 123.722656 C 145.660156 124.621094 144.34375 125.566406 143.058594 126.5625 L 83.1875 66.308594 C 83.574219 65.691406 83.941406 65.066406 84.292969 64.429688 C 84.640625 63.792969 84.96875 63.144531 85.28125 62.488281 C 85.589844 61.832031 85.878906 61.164062 86.148438 60.492188 C 86.417969 59.816406 86.667969 59.132812 86.894531 58.445312 C 87.121094 57.753906 87.328125 57.058594 87.515625 56.355469 C 87.699219 55.652344 87.863281 54.945312 88.003906 54.234375 C 88.148438 53.519531 88.269531 52.804688 88.367188 52.085938 C 88.46875 51.367188 88.542969 50.644531 88.597656 49.917969 C 88.652344 49.195312 88.6875 48.46875 88.699219 47.742188 C 88.710938 47.015625 88.699219 46.292969 88.664062 45.566406 C 88.632812 44.839844 88.578125 44.117188 88.5 43.394531 C 88.421875 42.671875 88.324219 41.953125 88.203125 41.234375 C 88.082031 40.519531 87.941406 39.808594 87.777344 39.097656 C 87.613281 38.390625 87.425781 37.691406 87.21875 36.992188 C 87.015625 36.296875 86.785156 35.605469 86.539062 34.925781 C 86.289062 34.242188 86.019531 33.566406 85.730469 32.902344 C 85.441406 32.234375 85.132812 31.578125 84.800781 30.929688 C 84.472656 30.285156 84.125 29.644531 83.753906 29.019531 C 83.386719 28.394531 83 27.777344 82.59375 27.175781 C 82.191406 26.574219 81.765625 25.984375 81.324219 25.40625 C 80.882812 24.828125 80.425781 24.265625 79.949219 23.71875 C 79.472656 23.167969 78.984375 22.632812 78.472656 22.113281 C 77.964844 21.59375 77.441406 21.09375 76.90625 20.605469 C 76.367188 20.117188 75.8125 19.644531 75.246094 19.191406 C 74.679688 18.738281 74.097656 18.300781 73.503906 17.882812 C 72.910156 17.464844 72.304688 17.066406 71.6875 16.683594 C 71.070312 16.300781 70.441406 15.9375 69.800781 15.59375 C 69.160156 15.25 68.511719 14.925781 67.851562 14.621094 C 67.191406 14.320312 66.523438 14.035156 65.847656 13.769531 C 65.167969 13.507812 64.484375 13.265625 63.792969 13.042969 C 63.101562 12.820312 62.402344 12.621094 61.699219 12.441406 C 60.996094 12.261719 60.285156 12.101562 59.574219 11.964844 C 58.859375 11.828125 58.144531 11.714844 57.421875 11.621094 C 56.703125 11.527344 55.980469 11.457031 55.253906 11.410156 C 54.53125 11.359375 53.804688 11.332031 53.078125 11.328125 C 52.351562 11.324219 51.625 11.339844 50.898438 11.378906 C 50.175781 11.417969 49.449219 11.480469 48.730469 11.5625 C 48.007812 11.644531 47.289062 11.75 46.574219 11.878906 C 45.859375 12.003906 45.148438 12.152344 44.441406 12.324219 C 43.734375 12.492188 43.035156 12.683594 42.339844 12.894531 C 41.644531 13.109375 40.957031 13.34375 40.277344 13.597656 C 39.597656 13.851562 38.925781 14.125 38.261719 14.421875 C 37.597656 14.714844 36.941406 15.03125 36.296875 15.363281 C 35.652344 15.699219 35.019531 16.054688 34.394531 16.425781 C 33.773438 16.800781 33.160156 17.191406 32.5625 17.601562 C 31.964844 18.015625 31.375 18.441406 30.804688 18.886719 C 30.230469 19.335938 29.671875 19.796875 29.125 20.277344 C 28.582031 20.757812 28.050781 21.253906 27.535156 21.765625 C 27.019531 22.277344 26.519531 22.804688 26.039062 23.347656 C 25.554688 23.890625 25.089844 24.449219 24.640625 25.019531 C 24.191406 25.589844 23.757812 26.175781 23.34375 26.769531 C 22.933594 27.367188 22.535156 27.976562 22.160156 28.597656 C 21.785156 29.21875 21.425781 29.851562 21.085938 30.496094 C 20.75 31.136719 20.429688 31.789062 20.132812 32.453125 C 19.832031 33.113281 19.554688 33.785156 19.296875 34.464844 C 19.039062 35.144531 18.804688 35.828125 18.585938 36.523438 C 18.371094 37.21875 18.175781 37.917969 18 38.621094 C 17.828125 39.328125 17.675781 40.039062 17.546875 40.75 C 17.414062 41.464844 17.304688 42.183594 17.21875 42.90625 C 17.132812 43.625 17.066406 44.351562 17.023438 45.074219 C 16.980469 45.800781 16.960938 46.527344 16.960938 47.253906 C 16.960938 47.980469 16.984375 48.703125 17.03125 49.429688 C 17.078125 50.15625 17.144531 50.878906 17.234375 51.597656 C 17.320312 52.320312 17.433594 53.039062 17.566406 53.75 C 17.699219 54.464844 17.851562 55.175781 18.027344 55.878906 C 18.203125 56.585938 18.402344 57.285156 18.621094 57.976562 C 18.839844 58.667969 19.078125 59.355469 19.335938 60.035156 C 19.597656 60.710938 19.878906 61.382812 20.179688 62.042969 C 20.480469 62.703125 20.800781 63.355469 21.140625 63.996094 C 21.480469 64.640625 21.839844 65.269531 22.21875 65.890625 C 22.597656 66.511719 22.992188 67.117188 23.410156 67.714844 C 23.824219 68.308594 24.257812 68.894531 24.707031 69.460938 C 25.160156 70.03125 25.628906 70.585938 26.113281 71.128906 C 26.597656 71.671875 27.097656 72.195312 27.613281 72.707031 C 28.128906 73.21875 28.660156 73.710938 29.207031 74.191406 C 29.753906 74.667969 30.316406 75.128906 30.890625 75.574219 C 31.464844 76.019531 32.054688 76.445312 32.652344 76.855469 C 33.253906 77.261719 33.867188 77.652344 34.492188 78.023438 C 35.113281 78.394531 35.75 78.746094 36.394531 79.082031 C 37.042969 79.414062 37.695312 79.726562 38.363281 80.019531 C 39.027344 80.3125 39.699219 80.585938 40.378906 80.835938 C 41.0625 81.089844 41.75 81.320312 42.445312 81.53125 C 43.140625 81.742188 43.839844 81.929688 44.546875 82.097656 C 45.253906 82.265625 45.964844 82.414062 46.683594 82.535156 C 47.398438 82.660156 48.117188 82.765625 48.839844 82.84375 C 49.5625 82.925781 50.285156 82.984375 51.011719 83.023438 C 51.734375 83.058594 52.460938 83.074219 53.1875 83.066406 C 53.914062 83.058594 54.640625 83.03125 55.363281 82.980469 C 56.089844 82.925781 56.8125 82.855469 57.53125 82.757812 C 58.25 82.664062 58.96875 82.546875 59.679688 82.40625 C 60.394531 82.269531 61.101562 82.109375 61.804688 81.925781 C 62.507812 81.746094 63.207031 81.542969 63.898438 81.320312 C 64.589844 81.09375 65.273438 80.847656 65.949219 80.582031 C 66.625 80.316406 67.292969 80.03125 67.949219 79.726562 C 68.609375 79.421875 69.257812 79.09375 69.898438 78.75 C 70.535156 78.402344 71.164062 78.039062 71.78125 77.65625 L 131.652344 137.886719 C 130.117188 139.84375 128.699219 141.882812 127.398438 144.003906 C 126.097656 146.121094 124.921875 148.308594 123.875 150.5625 C 122.824219 152.820312 121.90625 155.125 121.121094 157.484375 C 120.339844 159.84375 119.691406 162.242188 119.183594 164.675781 C 118.671875 167.109375 118.304688 169.566406 118.078125 172.042969 C 117.847656 174.519531 117.761719 177 117.820312 179.488281 C 117.878906 181.972656 118.078125 184.449219 118.417969 186.910156 C 118.761719 189.375 119.242188 191.808594 119.863281 194.21875 L 68.722656 214.539062 C 68.320312 213.960938 67.902344 213.394531 67.46875 212.84375 C 67.03125 212.289062 66.582031 211.75 66.113281 211.222656 C 65.644531 210.699219 65.164062 210.1875 64.664062 209.6875 C 64.167969 209.191406 63.65625 208.707031 63.128906 208.242188 C 62.605469 207.773438 62.0625 207.324219 61.511719 206.886719 C 60.957031 206.453125 60.394531 206.035156 59.816406 205.632812 C 59.238281 205.230469 58.648438 204.84375 58.050781 204.476562 C 57.449219 204.109375 56.839844 203.761719 56.21875 203.429688 C 55.597656 203.101562 54.964844 202.789062 54.328125 202.496094 C 53.6875 202.199219 53.039062 201.925781 52.382812 201.671875 C 51.726562 201.414062 51.066406 201.179688 50.394531 200.964844 C 49.726562 200.746094 49.050781 200.550781 48.371094 200.375 C 47.6875 200.199219 47.003906 200.042969 46.3125 199.90625 C 45.621094 199.769531 44.929688 199.65625 44.230469 199.5625 C 43.535156 199.46875 42.835938 199.394531 42.132812 199.339844 C 41.429688 199.285156 40.726562 199.253906 40.023438 199.242188 C 39.320312 199.230469 38.617188 199.238281 37.914062 199.269531 C 37.210938 199.300781 36.511719 199.351562 35.808594 199.421875 C 35.109375 199.492188 34.414062 199.585938 33.71875 199.699219 C 33.023438 199.808594 32.332031 199.941406 31.648438 200.097656 C 30.960938 200.25 30.277344 200.425781 29.601562 200.617188 C 28.925781 200.8125 28.253906 201.023438 27.589844 201.257812 C 26.929688 201.492188 26.269531 201.746094 25.621094 202.015625 C 24.972656 202.289062 24.332031 202.582031 23.703125 202.890625 C 23.070312 203.199219 22.449219 203.527344 21.835938 203.875 C 21.222656 204.222656 20.621094 204.585938 20.03125 204.96875 C 19.441406 205.351562 18.863281 205.753906 18.296875 206.167969 C 17.730469 206.585938 17.175781 207.019531 16.632812 207.46875 C 16.089844 207.917969 15.5625 208.382812 15.050781 208.863281 C 14.535156 209.34375 14.039062 209.839844 13.550781 210.351562 C 13.066406 210.859375 12.597656 211.382812 12.144531 211.921875 C 11.691406 212.460938 11.253906 213.011719 10.832031 213.574219 C 10.414062 214.140625 10.007812 214.714844 9.621094 215.300781 C 9.234375 215.890625 8.867188 216.488281 8.515625 217.097656 C 8.164062 217.707031 7.828125 218.328125 7.515625 218.957031 C 7.199219 219.585938 6.902344 220.222656 6.625 220.871094 C 6.347656 221.515625 6.089844 222.171875 5.851562 222.832031 C 5.613281 223.496094 5.394531 224.164062 5.199219 224.839844 C 5 225.515625 4.820312 226.195312 4.660156 226.878906 C 4.503906 227.566406 4.363281 228.253906 4.246094 228.949219 C 4.128906 229.640625 4.03125 230.339844 3.953125 231.039062 C 3.878906 231.738281 3.820312 232.4375 3.785156 233.140625 C 3.75 233.84375 3.738281 234.546875 3.742188 235.25 C 3.75 235.953125 3.777344 236.65625 3.824219 237.359375 C 3.871094 238.0625 3.941406 238.761719 4.03125 239.460938 C 4.121094 240.15625 4.230469 240.851562 4.359375 241.542969 C 4.492188 242.234375 4.640625 242.921875 4.8125 243.605469 C 4.984375 244.289062 5.175781 244.964844 5.386719 245.636719 C 5.597656 246.304688 5.828125 246.972656 6.078125 247.628906 C 6.328125 248.285156 6.597656 248.9375 6.886719 249.578125 C 7.175781 250.21875 7.484375 250.851562 7.808594 251.476562 C 8.136719 252.097656 8.480469 252.710938 8.84375 253.316406 C 9.207031 253.917969 9.585938 254.507812 9.984375 255.089844 C 10.382812 255.671875 10.796875 256.238281 11.226562 256.796875 C 11.65625 257.351562 12.105469 257.894531 12.566406 258.421875 C 13.03125 258.953125 13.511719 259.46875 14.003906 259.96875 C 14.496094 260.472656 15.003906 260.957031 15.527344 261.429688 C 16.050781 261.898438 16.585938 262.355469 17.136719 262.796875 C 17.683594 263.234375 18.246094 263.65625 18.820312 264.0625 C 19.394531 264.46875 19.980469 264.859375 20.578125 265.230469 C 21.175781 265.601562 21.785156 265.957031 22.402344 266.292969 C 23.023438 266.628906 23.648438 266.945312 24.285156 267.242188 C 24.925781 267.542969 25.570312 267.820312 26.222656 268.082031 C 26.875 268.34375 27.539062 268.582031 28.207031 268.804688 C 28.875 269.027344 29.546875 269.226562 30.226562 269.410156 C 30.90625 269.589844 31.589844 269.75 32.28125 269.890625 C 32.96875 270.035156 33.664062 270.152344 34.359375 270.253906 C 35.054688 270.355469 35.753906 270.433594 36.457031 270.492188 C 37.15625 270.550781 37.859375 270.589844 38.5625 270.605469 C 39.265625 270.621094 39.96875 270.617188 40.671875 270.59375 C 41.375 270.570312 42.078125 270.523438 42.777344 270.457031 C 43.480469 270.394531 44.175781 270.304688 44.875 270.199219 C 45.570312 270.089844 46.261719 269.964844 46.949219 269.816406 C 47.636719 269.667969 48.320312 269.5 48.996094 269.308594 C 49.675781 269.121094 50.347656 268.914062 51.011719 268.683594 C 51.675781 268.457031 52.335938 268.210938 52.988281 267.941406 C 53.636719 267.675781 54.28125 267.386719 54.914062 267.082031 C 55.546875 266.777344 56.171875 266.453125 56.789062 266.113281 C 57.402344 265.769531 58.007812 265.410156 58.601562 265.03125 C 59.191406 264.652344 59.773438 264.257812 60.34375 263.847656 C 60.914062 263.433594 61.472656 263.003906 62.019531 262.558594 C 62.5625 262.113281 63.09375 261.652344 63.609375 261.175781 C 64.128906 260.699219 64.632812 260.207031 65.121094 259.703125 C 65.609375 259.195312 66.082031 258.675781 66.539062 258.140625 C 66.996094 257.605469 67.4375 257.058594 67.863281 256.496094 C 68.289062 255.9375 68.699219 255.363281 69.089844 254.78125 C 69.480469 254.195312 69.855469 253.597656 70.210938 252.992188 C 70.566406 252.386719 70.90625 251.769531 71.222656 251.140625 C 71.542969 250.515625 71.84375 249.878906 72.128906 249.234375 C 72.410156 248.589844 72.671875 247.9375 72.914062 247.277344 C 73.160156 246.617188 73.382812 245.949219 73.585938 245.277344 C 73.789062 244.605469 73.976562 243.925781 74.140625 243.242188 C 74.300781 242.558594 74.445312 241.867188 74.570312 241.175781 C 74.691406 240.484375 74.796875 239.785156 74.878906 239.089844 C 74.960938 238.390625 75.019531 237.6875 75.0625 236.984375 C 75.101562 236.285156 75.121094 235.582031 75.121094 234.875 C 75.101562 233.074219 74.945312 231.285156 74.65625 229.503906 L 125.816406 209.1875 C 126.378906 210.214844 126.96875 211.226562 127.585938 212.222656 C 128.203125 213.21875 128.847656 214.199219 129.515625 215.160156 C 130.183594 216.121094 130.878906 217.0625 131.601562 217.984375 C 132.320312 218.910156 133.066406 219.8125 133.835938 220.695312 C 134.605469 221.582031 135.398438 222.441406 136.214844 223.28125 C 137.03125 224.121094 137.871094 224.941406 138.730469 225.734375 C 139.589844 226.53125 140.472656 227.300781 141.375 228.050781 C 142.277344 228.796875 143.199219 229.519531 144.140625 230.21875 C 145.082031 230.914062 146.039062 231.585938 147.019531 232.230469 C 147.996094 232.878906 148.992188 233.496094 150 234.085938 C 151.011719 234.679688 152.039062 235.242188 153.082031 235.78125 C 154.121094 236.316406 155.179688 236.824219 156.246094 237.300781 C 157.316406 237.78125 158.398438 238.230469 159.492188 238.652344 C 160.585938 239.070312 161.6875 239.460938 162.804688 239.824219 C 163.917969 240.183594 165.042969 240.515625 166.175781 240.816406 C 167.308594 241.113281 168.445312 241.382812 169.59375 241.621094 C 170.742188 241.859375 171.894531 242.066406 173.050781 242.242188 C 174.210938 242.417969 175.371094 242.5625 176.539062 242.675781 C 177.703125 242.789062 178.875 242.871094 180.042969 242.921875 C 181.214844 242.96875 182.386719 242.988281 183.558594 242.976562 C 184.726562 242.960938 185.898438 242.917969 187.066406 242.839844 C 188.238281 242.761719 189.402344 242.652344 190.566406 242.515625 C 191.730469 242.375 192.886719 242.203125 194.042969 242 C 195.195312 241.796875 196.34375 241.5625 197.484375 241.296875 C 198.625 241.03125 199.757812 240.738281 200.882812 240.410156 C 202.007812 240.085938 203.125 239.730469 204.230469 239.34375 C 205.335938 238.957031 206.429688 238.539062 207.515625 238.09375 C 208.597656 237.648438 209.667969 237.171875 210.726562 236.667969 C 211.785156 236.164062 212.828125 235.632812 213.855469 235.074219 C 214.886719 234.511719 215.898438 233.925781 216.894531 233.308594 C 217.894531 232.695312 218.871094 232.054688 219.835938 231.386719 C 220.796875 230.71875 221.742188 230.023438 222.667969 229.304688 L 305.894531 312.671875 C 305.050781 314.019531 304.300781 315.414062 303.640625 316.859375 C 302.984375 318.304688 302.425781 319.785156 301.964844 321.304688 C 301.503906 322.828125 301.148438 324.371094 300.894531 325.9375 C 300.640625 327.503906 300.492188 329.082031 300.449219 330.671875 C 300.40625 332.257812 300.46875 333.839844 300.636719 335.421875 C 300.804688 337 301.074219 338.558594 301.453125 340.101562 C 301.828125 341.644531 302.304688 343.15625 302.882812 344.636719 C 303.460938 346.113281 304.136719 347.546875 304.902344 348.9375 C 305.671875 350.328125 306.53125 351.660156 307.480469 352.933594 C 308.425781 354.207031 309.453125 355.414062 310.5625 356.550781 C 311.671875 357.6875 312.847656 358.746094 314.097656 359.726562 C 315.347656 360.707031 316.65625 361.601562 318.027344 362.40625 C 319.394531 363.210938 320.8125 363.921875 322.273438 364.539062 C 323.738281 365.152344 325.238281 365.667969 326.769531 366.085938 C 328.300781 366.503906 329.855469 366.816406 331.429688 367.023438 C 333.003906 367.234375 334.585938 367.335938 336.171875 367.332031 Z M 39.371094 254.652344 C 38.726562 254.652344 38.085938 254.621094 37.445312 254.558594 C 36.808594 254.496094 36.171875 254.402344 35.542969 254.277344 C 34.910156 254.152344 34.289062 253.996094 33.671875 253.808594 C 33.058594 253.621094 32.453125 253.40625 31.859375 253.160156 C 31.265625 252.914062 30.683594 252.640625 30.117188 252.335938 C 29.550781 252.035156 29 251.707031 28.464844 251.347656 C 27.929688 250.992188 27.414062 250.609375 26.914062 250.203125 C 26.417969 249.792969 25.941406 249.363281 25.488281 248.910156 C 25.03125 248.457031 24.601562 247.980469 24.191406 247.484375 C 23.785156 246.988281 23.398438 246.472656 23.042969 245.9375 C 22.683594 245.402344 22.355469 244.855469 22.050781 244.289062 C 21.746094 243.71875 21.46875 243.140625 21.222656 242.546875 C 20.976562 241.953125 20.757812 241.347656 20.570312 240.734375 C 20.382812 240.121094 20.226562 239.496094 20.101562 238.867188 C 19.972656 238.234375 19.878906 237.601562 19.8125 236.960938 C 19.75 236.320312 19.71875 235.679688 19.714844 235.039062 C 19.714844 234.394531 19.746094 233.753906 19.804688 233.113281 C 19.867188 232.472656 19.960938 231.839844 20.085938 231.207031 C 20.207031 230.578125 20.363281 229.953125 20.546875 229.335938 C 20.734375 228.722656 20.949219 228.117188 21.191406 227.523438 C 21.4375 226.925781 21.710938 226.347656 22.011719 225.777344 C 22.3125 225.210938 22.640625 224.660156 22.996094 224.125 C 23.355469 223.589844 23.734375 223.070312 24.140625 222.574219 C 24.546875 222.074219 24.976562 221.597656 25.429688 221.140625 C 25.882812 220.6875 26.359375 220.253906 26.855469 219.84375 C 27.347656 219.433594 27.863281 219.050781 28.398438 218.691406 C 28.929688 218.332031 29.480469 218 30.046875 217.695312 C 30.613281 217.390625 31.191406 217.113281 31.785156 216.867188 C 32.378906 216.617188 32.980469 216.398438 33.597656 216.210938 C 34.210938 216.019531 34.832031 215.863281 35.464844 215.734375 C 36.09375 215.605469 36.726562 215.511719 37.367188 215.445312 C 38.007812 215.378906 38.648438 215.34375 39.289062 215.34375 C 39.933594 215.339844 40.574219 215.367188 41.214844 215.429688 C 41.855469 215.488281 42.492188 215.582031 43.121094 215.703125 C 43.753906 215.824219 44.375 215.980469 44.992188 216.164062 C 45.609375 216.347656 46.214844 216.5625 46.808594 216.804688 C 47.40625 217.046875 47.984375 217.320312 48.554688 217.621094 C 49.125 217.917969 49.675781 218.246094 50.210938 218.601562 C 50.746094 218.957031 51.265625 219.335938 51.765625 219.742188 C 52.261719 220.148438 52.742188 220.574219 53.199219 221.027344 C 53.65625 221.480469 54.089844 221.953125 54.5 222.449219 C 54.910156 222.945312 55.296875 223.457031 55.65625 223.988281 C 56.015625 224.523438 56.347656 225.070312 56.65625 225.636719 C 56.960938 226.203125 57.238281 226.78125 57.488281 227.375 C 57.738281 227.964844 57.957031 228.570312 58.148438 229.183594 C 58.335938 229.796875 58.496094 230.417969 58.625 231.050781 C 58.753906 231.679688 58.851562 232.3125 58.921875 232.953125 C 58.988281 233.59375 59.023438 234.234375 59.027344 234.875 C 59.027344 235.523438 58.996094 236.164062 58.933594 236.808594 C 58.875 237.449219 58.78125 238.085938 58.65625 238.71875 C 58.53125 239.351562 58.375 239.976562 58.191406 240.59375 C 58.003906 241.210938 57.789062 241.816406 57.542969 242.414062 C 57.296875 243.011719 57.023438 243.59375 56.71875 244.160156 C 56.417969 244.730469 56.085938 245.285156 55.730469 245.820312 C 55.371094 246.359375 54.988281 246.875 54.582031 247.375 C 54.171875 247.875 53.738281 248.351562 53.285156 248.808594 C 52.828125 249.265625 52.351562 249.699219 51.855469 250.109375 C 51.355469 250.519531 50.839844 250.902344 50.304688 251.261719 C 49.769531 251.621094 49.21875 251.953125 48.648438 252.257812 C 48.082031 252.5625 47.5 252.835938 46.902344 253.085938 C 46.308594 253.332031 45.703125 253.550781 45.085938 253.738281 C 44.46875 253.925781 43.84375 254.082031 43.210938 254.210938 C 42.578125 254.335938 41.941406 254.433594 41.300781 254.496094 C 40.660156 254.558594 40.015625 254.59375 39.371094 254.59375 Z M 355.828125 331.625 C 355.828125 332.269531 355.796875 332.910156 355.734375 333.550781 C 355.671875 334.191406 355.578125 334.828125 355.453125 335.460938 C 355.328125 336.09375 355.171875 336.714844 354.988281 337.332031 C 354.800781 337.949219 354.585938 338.554688 354.339844 339.148438 C 354.09375 339.746094 353.816406 340.324219 353.515625 340.894531 C 353.210938 341.460938 352.882812 342.015625 352.523438 342.550781 C 352.167969 343.085938 351.785156 343.601562 351.375 344.101562 C 350.96875 344.597656 350.539062 345.074219 350.082031 345.53125 C 349.628906 345.988281 349.152344 346.417969 348.652344 346.828125 C 348.15625 347.238281 347.640625 347.621094 347.105469 347.976562 C 346.570312 348.335938 346.019531 348.667969 345.453125 348.972656 C 344.882812 349.277344 344.300781 349.550781 343.707031 349.796875 C 343.113281 350.042969 342.507812 350.261719 341.890625 350.449219 C 341.277344 350.636719 340.652344 350.792969 340.019531 350.917969 C 339.390625 351.046875 338.753906 351.140625 338.113281 351.203125 C 337.472656 351.265625 336.828125 351.300781 336.1875 351.300781 C 335.542969 351.300781 334.898438 351.269531 334.257812 351.207031 C 333.617188 351.144531 332.980469 351.050781 332.351562 350.925781 C 331.71875 350.800781 331.09375 350.644531 330.476562 350.457031 C 329.863281 350.269531 329.257812 350.054688 328.660156 349.808594 C 328.066406 349.5625 327.484375 349.289062 326.917969 348.984375 C 326.347656 348.679688 325.796875 348.351562 325.261719 347.992188 C 324.726562 347.636719 324.210938 347.253906 323.710938 346.84375 C 323.214844 346.4375 322.738281 346.003906 322.28125 345.550781 C 321.824219 345.09375 321.394531 344.617188 320.984375 344.121094 C 320.574219 343.625 320.191406 343.105469 319.835938 342.570312 C 319.476562 342.035156 319.144531 341.484375 318.84375 340.917969 C 318.539062 340.351562 318.261719 339.769531 318.015625 339.175781 C 317.769531 338.578125 317.550781 337.972656 317.367188 337.359375 C 317.179688 336.742188 317.023438 336.117188 316.894531 335.488281 C 316.769531 334.855469 316.675781 334.21875 316.613281 333.578125 C 316.550781 332.9375 316.515625 332.296875 316.515625 331.652344 C 316.515625 331.007812 316.546875 330.363281 316.609375 329.722656 C 316.671875 329.082031 316.769531 328.445312 316.894531 327.816406 C 317.019531 327.183594 317.175781 326.558594 317.363281 325.945312 C 317.546875 325.328125 317.765625 324.722656 318.011719 324.128906 C 318.257812 323.53125 318.53125 322.949219 318.835938 322.382812 C 319.140625 321.816406 319.46875 321.261719 319.828125 320.726562 C 320.183594 320.191406 320.566406 319.675781 320.976562 319.179688 C 321.382812 318.679688 321.816406 318.203125 322.269531 317.75 C 322.726562 317.292969 323.203125 316.859375 323.699219 316.453125 C 324.199219 316.042969 324.714844 315.660156 325.25 315.304688 C 325.785156 314.945312 326.335938 314.613281 326.90625 314.3125 C 327.472656 314.007812 328.054688 313.734375 328.648438 313.484375 C 329.242188 313.238281 329.847656 313.023438 330.464844 312.835938 C 331.082031 312.648438 331.707031 312.492188 332.335938 312.367188 C 332.96875 312.242188 333.605469 312.148438 334.246094 312.082031 C 334.886719 312.019531 335.527344 311.988281 336.171875 311.988281 C 336.8125 311.988281 337.453125 312.023438 338.09375 312.085938 C 338.730469 312.148438 339.367188 312.242188 339.996094 312.367188 C 340.625 312.492188 341.246094 312.648438 341.859375 312.835938 C 342.476562 313.023438 343.078125 313.238281 343.671875 313.484375 C 344.265625 313.726562 344.84375 314.003906 345.410156 314.304688 C 345.976562 314.605469 346.527344 314.933594 347.0625 315.292969 C 347.597656 315.648438 348.113281 316.027344 348.609375 316.433594 C 349.105469 316.839844 349.582031 317.269531 350.035156 317.722656 C 350.492188 318.175781 350.921875 318.652344 351.332031 319.144531 C 351.738281 319.640625 352.121094 320.15625 352.480469 320.6875 C 352.839844 321.21875 353.171875 321.769531 353.476562 322.335938 C 353.777344 322.898438 354.054688 323.476562 354.304688 324.070312 C 354.550781 324.664062 354.769531 325.265625 354.957031 325.878906 C 355.148438 326.492188 355.304688 327.113281 355.433594 327.742188 C 355.5625 328.371094 355.65625 329.003906 355.722656 329.644531 C 355.789062 330.28125 355.824219 330.921875 355.828125 331.5625 Z M 280.789062 33.09375 C 281.429688 33.09375 282.074219 33.125 282.714844 33.1875 C 283.355469 33.25 283.992188 33.34375 284.621094 33.472656 C 285.253906 33.597656 285.875 33.753906 286.492188 33.9375 C 287.109375 34.125 287.714844 34.34375 288.308594 34.589844 C 288.902344 34.835938 289.484375 35.109375 290.050781 35.414062 C 290.621094 35.71875 291.171875 36.046875 291.707031 36.40625 C 292.242188 36.761719 292.757812 37.144531 293.257812 37.554688 C 293.753906 37.964844 294.230469 38.394531 294.6875 38.851562 C 295.140625 39.304688 295.574219 39.78125 295.980469 40.277344 C 296.390625 40.777344 296.773438 41.292969 297.128906 41.828125 C 297.488281 42.363281 297.816406 42.914062 298.121094 43.484375 C 298.425781 44.050781 298.699219 44.632812 298.945312 45.226562 C 299.191406 45.820312 299.410156 46.425781 299.597656 47.042969 C 299.78125 47.660156 299.9375 48.28125 300.066406 48.914062 C 300.191406 49.546875 300.285156 50.179688 300.347656 50.820312 C 300.410156 51.460938 300.441406 52.105469 300.441406 52.75 C 300.441406 53.390625 300.410156 54.035156 300.347656 54.675781 C 300.285156 55.316406 300.191406 55.953125 300.066406 56.582031 C 299.9375 57.214844 299.78125 57.839844 299.597656 58.453125 C 299.410156 59.070312 299.191406 59.675781 298.945312 60.269531 C 298.699219 60.863281 298.425781 61.445312 298.121094 62.015625 C 297.816406 62.582031 297.488281 63.132812 297.128906 63.667969 C 296.773438 64.203125 296.390625 64.71875 295.980469 65.21875 C 295.574219 65.714844 295.140625 66.191406 294.6875 66.648438 C 294.230469 67.101562 293.753906 67.535156 293.257812 67.941406 C 292.757812 68.351562 292.242188 68.734375 291.707031 69.089844 C 291.171875 69.449219 290.621094 69.78125 290.050781 70.082031 C 289.484375 70.386719 288.902344 70.660156 288.308594 70.90625 C 287.714844 71.152344 287.109375 71.371094 286.492188 71.558594 C 285.875 71.746094 285.253906 71.902344 284.621094 72.027344 C 283.992188 72.152344 283.355469 72.246094 282.714844 72.308594 C 282.074219 72.371094 281.429688 72.402344 280.789062 72.402344 C 280.144531 72.402344 279.5 72.371094 278.859375 72.308594 C 278.21875 72.246094 277.585938 72.152344 276.953125 72.027344 C 276.320312 71.902344 275.699219 71.746094 275.082031 71.558594 C 274.464844 71.371094 273.859375 71.152344 273.265625 70.90625 C 272.671875 70.660156 272.089844 70.386719 271.523438 70.082031 C 270.953125 69.78125 270.402344 69.449219 269.867188 69.089844 C 269.332031 68.734375 268.816406 68.351562 268.316406 67.941406 C 267.820312 67.535156 267.34375 67.101562 266.890625 66.648438 C 266.433594 66.191406 266 65.714844 265.59375 65.21875 C 265.183594 64.71875 264.800781 64.203125 264.445312 63.667969 C 264.085938 63.132812 263.757812 62.582031 263.453125 62.015625 C 263.148438 61.445312 262.875 60.863281 262.628906 60.269531 C 262.382812 59.675781 262.164062 59.070312 261.976562 58.453125 C 261.792969 57.839844 261.636719 57.214844 261.507812 56.582031 C 261.382812 55.953125 261.289062 55.316406 261.226562 54.675781 C 261.164062 54.035156 261.132812 53.390625 261.132812 52.75 C 261.132812 52.105469 261.167969 51.464844 261.230469 50.824219 C 261.292969 50.183594 261.390625 49.546875 261.515625 48.917969 C 261.644531 48.285156 261.800781 47.664062 261.988281 47.046875 C 262.175781 46.433594 262.390625 45.828125 262.640625 45.234375 C 262.886719 44.640625 263.160156 44.058594 263.464844 43.492188 C 263.769531 42.921875 264.097656 42.371094 264.457031 41.839844 C 264.816406 41.304688 265.199219 40.789062 265.605469 40.289062 C 266.015625 39.792969 266.445312 39.316406 266.902344 38.863281 C 267.355469 38.40625 267.832031 37.976562 268.328125 37.566406 C 268.824219 37.160156 269.34375 36.777344 269.875 36.417969 C 270.410156 36.058594 270.960938 35.730469 271.53125 35.425781 C 272.097656 35.121094 272.675781 34.847656 273.273438 34.601562 C 273.867188 34.351562 274.472656 34.136719 275.085938 33.949219 C 275.703125 33.761719 276.324219 33.605469 276.957031 33.476562 C 277.585938 33.351562 278.222656 33.253906 278.863281 33.191406 C 279.503906 33.128906 280.144531 33.09375 280.789062 33.09375 Z M 33.335938 47.316406 C 33.335938 46.671875 33.367188 46.03125 33.429688 45.390625 C 33.492188 44.75 33.585938 44.113281 33.714844 43.480469 C 33.839844 42.851562 33.996094 42.226562 34.183594 41.609375 C 34.367188 40.996094 34.585938 40.390625 34.832031 39.792969 C 35.078125 39.199219 35.351562 38.617188 35.65625 38.050781 C 35.960938 37.484375 36.289062 36.933594 36.648438 36.398438 C 37.003906 35.863281 37.390625 35.34375 37.796875 34.847656 C 38.207031 34.351562 38.636719 33.875 39.09375 33.417969 C 39.546875 32.964844 40.023438 32.53125 40.523438 32.121094 C 41.019531 31.714844 41.535156 31.332031 42.070312 30.972656 C 42.605469 30.617188 43.15625 30.285156 43.726562 29.980469 C 44.292969 29.679688 44.875 29.402344 45.46875 29.15625 C 46.0625 28.910156 46.667969 28.695312 47.285156 28.507812 C 47.902344 28.320312 48.523438 28.164062 49.15625 28.039062 C 49.789062 27.914062 50.421875 27.820312 51.0625 27.757812 C 51.703125 27.691406 52.347656 27.660156 52.992188 27.660156 C 53.632812 27.660156 54.277344 27.691406 54.917969 27.757812 C 55.558594 27.820312 56.195312 27.914062 56.824219 28.039062 C 57.457031 28.164062 58.082031 28.320312 58.695312 28.507812 C 59.3125 28.695312 59.917969 28.910156 60.511719 29.15625 C 61.105469 29.402344 61.6875 29.679688 62.257812 29.980469 C 62.824219 30.285156 63.375 30.617188 63.910156 30.972656 C 64.445312 31.332031 64.960938 31.714844 65.460938 32.121094 C 65.957031 32.53125 66.433594 32.964844 66.890625 33.417969 C 67.34375 33.875 67.777344 34.351562 68.183594 34.847656 C 68.59375 35.34375 68.976562 35.863281 69.332031 36.398438 C 69.691406 36.933594 70.023438 37.484375 70.324219 38.050781 C 70.628906 38.617188 70.902344 39.199219 71.148438 39.792969 C 71.394531 40.390625 71.613281 40.996094 71.800781 41.609375 C 71.988281 42.226562 72.144531 42.851562 72.269531 43.480469 C 72.394531 44.113281 72.488281 44.75 72.550781 45.390625 C 72.613281 46.03125 72.644531 46.671875 72.644531 47.316406 C 72.644531 47.960938 72.613281 48.601562 72.550781 49.242188 C 72.488281 49.882812 72.394531 50.519531 72.269531 51.152344 C 72.144531 51.78125 71.988281 52.40625 71.800781 53.023438 C 71.613281 53.636719 71.394531 54.242188 71.148438 54.839844 C 70.902344 55.433594 70.628906 56.015625 70.324219 56.582031 C 70.023438 57.148438 69.691406 57.703125 69.332031 58.238281 C 68.976562 58.773438 68.59375 59.289062 68.183594 59.785156 C 67.777344 60.285156 67.34375 60.757812 66.890625 61.214844 C 66.433594 61.671875 65.957031 62.101562 65.460938 62.511719 C 64.960938 62.917969 64.445312 63.300781 63.910156 63.660156 C 63.375 64.015625 62.824219 64.347656 62.257812 64.652344 C 61.6875 64.953125 61.105469 65.230469 60.511719 65.476562 C 59.917969 65.722656 59.3125 65.9375 58.695312 66.125 C 58.082031 66.3125 57.457031 66.46875 56.824219 66.59375 C 56.195312 66.71875 55.558594 66.8125 54.917969 66.878906 C 54.277344 66.941406 53.632812 66.972656 52.992188 66.972656 C 52.347656 66.972656 51.703125 66.941406 51.0625 66.878906 C 50.421875 66.8125 49.785156 66.71875 49.15625 66.59375 C 48.523438 66.46875 47.898438 66.3125 47.28125 66.125 C 46.667969 65.9375 46.0625 65.722656 45.464844 65.476562 C 44.871094 65.230469 44.289062 64.953125 43.722656 64.652344 C 43.152344 64.347656 42.601562 64.019531 42.066406 63.660156 C 41.53125 63.300781 41.015625 62.917969 40.515625 62.511719 C 40.019531 62.101562 39.539062 61.671875 39.085938 61.214844 C 38.628906 60.761719 38.199219 60.285156 37.789062 59.789062 C 37.378906 59.289062 36.996094 58.773438 36.636719 58.238281 C 36.28125 57.703125 35.949219 57.152344 35.644531 56.582031 C 35.339844 56.015625 35.066406 55.433594 34.820312 54.839844 C 34.570312 54.246094 34.355469 53.640625 34.167969 53.023438 C 33.980469 52.40625 33.824219 51.785156 33.695312 51.152344 C 33.570312 50.519531 33.476562 49.882812 33.410156 49.242188 C 33.347656 48.601562 33.316406 47.960938 33.316406 47.316406 Z M 133.925781 177.941406 C 133.925781 176.339844 134 174.742188 134.15625 173.144531 C 134.3125 171.550781 134.546875 169.964844 134.859375 168.394531 C 135.171875 166.820312 135.558594 165.269531 136.023438 163.734375 C 136.488281 162.199219 137.023438 160.691406 137.636719 159.210938 C 138.25 157.730469 138.933594 156.28125 139.6875 154.867188 C 140.441406 153.453125 141.265625 152.078125 142.15625 150.746094 C 143.042969 149.410156 143.996094 148.125 145.011719 146.886719 C 146.03125 145.644531 147.105469 144.460938 148.238281 143.324219 C 149.371094 142.191406 150.554688 141.113281 151.792969 140.097656 C 153.03125 139.078125 154.320312 138.125 155.652344 137.234375 C 156.984375 136.34375 158.355469 135.519531 159.769531 134.761719 C 161.183594 134.007812 162.628906 133.320312 164.109375 132.707031 C 165.589844 132.09375 167.097656 131.554688 168.632812 131.085938 C 170.167969 130.621094 171.71875 130.230469 173.292969 129.917969 C 174.863281 129.605469 176.445312 129.371094 178.042969 129.210938 C 179.636719 129.054688 181.238281 128.976562 182.839844 128.976562 C 184.441406 128.976562 186.042969 129.054688 187.636719 129.210938 C 189.230469 129.367188 190.816406 129.601562 192.386719 129.914062 C 193.960938 130.226562 195.511719 130.613281 197.046875 131.078125 C 198.582031 131.546875 200.089844 132.085938 201.570312 132.699219 C 203.050781 133.3125 204.5 133.996094 205.914062 134.75 C 207.324219 135.507812 208.699219 136.328125 210.03125 137.21875 C 211.367188 138.109375 212.652344 139.0625 213.890625 140.082031 C 215.128906 141.097656 216.316406 142.171875 217.449219 143.304688 C 218.582031 144.441406 219.65625 145.625 220.675781 146.863281 C 221.691406 148.105469 222.644531 149.390625 223.535156 150.722656 C 224.425781 152.054688 225.25 153.429688 226.003906 154.84375 C 226.761719 156.257812 227.445312 157.703125 228.058594 159.183594 C 228.671875 160.667969 229.210938 162.175781 229.675781 163.707031 C 230.140625 165.242188 230.527344 166.796875 230.839844 168.367188 C 231.152344 169.941406 231.386719 171.523438 231.546875 173.117188 C 231.703125 174.714844 231.78125 176.3125 231.78125 177.917969 C 231.78125 179.519531 231.699219 181.117188 231.542969 182.714844 C 231.386719 184.308594 231.148438 185.890625 230.835938 187.464844 C 230.523438 189.035156 230.132812 190.589844 229.667969 192.125 C 229.203125 193.65625 228.660156 195.164062 228.046875 196.644531 C 227.433594 198.125 226.75 199.574219 225.992188 200.984375 C 225.234375 202.398438 224.414062 203.773438 223.519531 205.105469 C 222.628906 206.4375 221.675781 207.722656 220.65625 208.960938 C 219.640625 210.199219 218.566406 211.386719 217.429688 212.519531 C 216.296875 213.652344 215.109375 214.726562 213.871094 215.742188 C 212.628906 216.757812 211.34375 217.710938 210.011719 218.601562 C 208.675781 219.492188 207.304688 220.3125 205.890625 221.066406 C 204.472656 221.820312 203.027344 222.503906 201.546875 223.117188 C 200.0625 223.730469 198.554688 224.269531 197.023438 224.734375 C 195.488281 225.199219 193.933594 225.585938 192.363281 225.898438 C 190.789062 226.207031 189.207031 226.441406 187.609375 226.597656 C 186.015625 226.753906 184.414062 226.832031 182.8125 226.828125 C 181.210938 226.828125 179.613281 226.746094 178.019531 226.589844 C 176.429688 226.429688 174.847656 226.195312 173.277344 225.878906 C 171.707031 225.566406 170.15625 225.175781 168.625 224.710938 C 167.09375 224.246094 165.585938 223.707031 164.109375 223.09375 C 162.628906 222.480469 161.183594 221.796875 159.769531 221.039062 C 158.359375 220.285156 156.988281 219.464844 155.65625 218.574219 C 154.324219 217.683594 153.042969 216.730469 151.804688 215.714844 C 150.566406 214.699219 149.378906 213.628906 148.246094 212.496094 C 147.113281 211.363281 146.039062 210.179688 145.023438 208.941406 C 144.007812 207.707031 143.054688 206.421875 142.164062 205.089844 C 141.273438 203.761719 140.449219 202.390625 139.695312 200.980469 C 138.9375 199.566406 138.25 198.125 137.636719 196.644531 C 137.023438 195.167969 136.480469 193.660156 136.015625 192.128906 C 135.546875 190.597656 135.15625 189.046875 134.84375 187.476562 C 134.527344 185.910156 134.289062 184.328125 134.128906 182.734375 C 133.96875 181.140625 133.890625 179.542969 133.886719 177.941406 Z M 133.925781 177.941406 " fill-opacity="1" fill-rule="nonzero"/></g></svg>