<svg xmlns="http://www.w3.org/2000/svg" xmlns:xlink="http://www.w3.org/1999/xlink" width="500" zoomAndPan="magnify" viewBox="0 0 375 374.999991" height="500" preserveAspectRatio="xMidYMid meet" version="1.0"><path fill="#ffffff" d="M 363.75 0.03125 L 291.703125 10.902344 C 283.691406 12.105469 280.46875 21.90625 286.191406 27.632812 L 302.804688 44.285156 L 242.324219 104.765625 L 224.667969 88.230469 C 224.203125 87.792969 223.71875 87.382812 223.210938 86.992188 C 222.707031 86.605469 222.183594 86.242188 221.644531 85.90625 C 221.101562 85.566406 220.546875 85.257812 219.976562 84.972656 C 219.40625 84.6875 218.824219 84.433594 218.226562 84.203125 C 217.632812 83.976562 217.027344 83.777344 216.410156 83.609375 C 215.796875 83.441406 215.175781 83.304688 214.546875 83.195312 C 213.917969 83.085938 213.289062 83.007812 212.652344 82.960938 C 212.015625 82.914062 211.378906 82.894531 210.742188 82.910156 C 210.105469 82.925781 209.46875 82.96875 208.835938 83.046875 C 208.203125 83.121094 207.578125 83.226562 206.953125 83.363281 C 206.332031 83.5 205.714844 83.667969 205.109375 83.863281 C 204.503906 84.058594 203.90625 84.285156 203.324219 84.539062 C 202.738281 84.792969 202.167969 85.074219 201.609375 85.382812 C 201.050781 85.691406 200.511719 86.027344 199.984375 86.386719 C 199.460938 86.75 198.953125 87.136719 198.46875 87.546875 C 197.980469 87.957031 197.511719 88.390625 197.066406 88.847656 L 130.109375 157.464844 L 114.613281 141.964844 C 114.160156 141.511719 113.683594 141.082031 113.1875 140.675781 C 112.691406 140.265625 112.175781 139.886719 111.644531 139.527344 C 111.109375 139.171875 110.5625 138.839844 109.996094 138.535156 C 109.429688 138.234375 108.851562 137.957031 108.261719 137.710938 C 107.667969 137.464844 107.066406 137.246094 106.453125 137.058594 C 105.839844 136.867188 105.214844 136.710938 104.585938 136.582031 C 103.957031 136.453125 103.324219 136.359375 102.6875 136.292969 C 102.046875 136.226562 101.410156 136.191406 100.765625 136.1875 C 100.125 136.183594 99.484375 136.210938 98.84375 136.269531 C 98.207031 136.328125 97.570312 136.417969 96.941406 136.539062 C 96.3125 136.660156 95.6875 136.8125 95.074219 136.992188 C 94.457031 137.175781 93.851562 137.386719 93.257812 137.625 C 92.660156 137.867188 92.078125 138.136719 91.511719 138.433594 C 90.941406 138.730469 90.390625 139.054688 89.851562 139.40625 C 89.316406 139.757812 88.796875 140.132812 88.296875 140.535156 C 87.796875 140.9375 87.316406 141.363281 86.859375 141.8125 L 7.949219 219.140625 C 7.472656 219.589844 7.023438 220.0625 6.59375 220.554688 C 6.167969 221.050781 5.765625 221.566406 5.386719 222.097656 C 5.011719 222.632812 4.660156 223.183594 4.339844 223.753906 C 4.015625 224.324219 3.722656 224.90625 3.460938 225.503906 C 3.195312 226.101562 2.960938 226.710938 2.757812 227.332031 C 2.554688 227.957031 2.382812 228.585938 2.242188 229.222656 C 2.101562 229.863281 1.992188 230.507812 1.914062 231.15625 C 1.835938 231.804688 1.792969 232.457031 1.78125 233.109375 C 1.769531 233.761719 1.789062 234.417969 1.84375 235.066406 C 1.894531 235.71875 1.980469 236.367188 2.097656 237.011719 C 2.214844 237.652344 2.363281 238.289062 2.542969 238.917969 C 2.722656 239.546875 2.933594 240.164062 3.175781 240.773438 C 3.417969 241.378906 3.6875 241.972656 3.988281 242.554688 C 4.289062 243.136719 4.617188 243.699219 4.976562 244.246094 C 5.332031 244.796875 5.714844 245.324219 6.125 245.835938 C 6.535156 246.34375 6.96875 246.832031 7.425781 247.300781 C 7.882812 247.765625 8.363281 248.207031 8.863281 248.628906 C 9.367188 249.046875 9.886719 249.441406 10.429688 249.808594 C 10.96875 250.175781 11.527344 250.515625 12.101562 250.824219 C 12.675781 251.136719 13.265625 251.421875 13.867188 251.675781 C 14.472656 251.925781 15.085938 252.148438 15.710938 252.34375 C 16.335938 252.535156 16.96875 252.695312 17.609375 252.824219 C 18.25 252.953125 18.894531 253.050781 19.546875 253.117188 C 20.195312 253.183594 20.847656 253.214844 21.503906 253.214844 C 22.15625 253.214844 22.808594 253.183594 23.457031 253.121094 C 24.109375 253.054688 24.753906 252.960938 25.394531 252.832031 C 26.039062 252.703125 26.671875 252.542969 27.296875 252.351562 C 27.921875 252.160156 28.535156 251.9375 29.136719 251.683594 C 29.742188 251.433594 30.332031 251.152344 30.90625 250.839844 C 31.480469 250.527344 32.039062 250.191406 32.582031 249.824219 C 33.121094 249.457031 33.644531 249.066406 34.148438 248.644531 C 34.648438 248.226562 35.128906 247.785156 35.589844 247.320312 L 100.503906 183.675781 L 116.308594 199.480469 C 116.769531 199.941406 117.25 200.378906 117.753906 200.789062 C 118.257812 201.203125 118.78125 201.589844 119.320312 201.949219 C 119.863281 202.3125 120.421875 202.644531 120.996094 202.949219 C 121.570312 203.253906 122.160156 203.53125 122.761719 203.777344 C 123.363281 204.027344 123.976562 204.242188 124.601562 204.429688 C 125.222656 204.617188 125.855469 204.773438 126.492188 204.898438 C 127.132812 205.019531 127.777344 205.113281 128.425781 205.175781 C 129.070312 205.234375 129.722656 205.261719 130.371094 205.261719 C 131.023438 205.257812 131.671875 205.21875 132.320312 205.152344 C 132.96875 205.085938 133.609375 204.984375 134.246094 204.855469 C 134.882812 204.722656 135.515625 204.558594 136.136719 204.367188 C 136.757812 204.171875 137.367188 203.949219 137.964844 203.695312 C 138.566406 203.441406 139.152344 203.160156 139.722656 202.847656 C 140.292969 202.535156 140.847656 202.195312 141.386719 201.828125 C 141.921875 201.460938 142.441406 201.070312 142.941406 200.652344 C 143.441406 200.234375 143.917969 199.792969 144.371094 199.328125 L 211.792969 130.246094 L 229.253906 146.632812 C 229.71875 147.0625 230.199219 147.472656 230.699219 147.859375 C 231.199219 148.246094 231.71875 148.609375 232.253906 148.945312 C 232.789062 149.28125 233.339844 149.59375 233.90625 149.875 C 234.472656 150.160156 235.050781 150.417969 235.640625 150.644531 C 236.230469 150.871094 236.832031 151.070312 237.441406 151.242188 C 238.050781 151.414062 238.664062 151.554688 239.289062 151.664062 C 239.910156 151.777344 240.539062 151.859375 241.167969 151.910156 C 241.800781 151.960938 242.433594 151.980469 243.066406 151.972656 C 243.699219 151.960938 244.328125 151.921875 244.957031 151.851562 C 245.585938 151.78125 246.210938 151.679688 246.828125 151.550781 C 247.449219 151.417969 248.058594 151.257812 248.664062 151.070312 C 249.269531 150.878906 249.863281 150.664062 250.445312 150.414062 C 251.027344 150.167969 251.597656 149.894531 252.152344 149.59375 C 252.710938 149.292969 253.25 148.964844 253.777344 148.613281 C 254.300781 148.261719 254.808594 147.882812 255.296875 147.480469 C 255.785156 147.078125 256.253906 146.652344 256.703125 146.207031 L 330.714844 72.195312 L 347.367188 88.808594 C 353.09375 94.53125 362.894531 91.308594 364.097656 83.296875 L 374.96875 11.25 C 375.957031 4.675781 370.324219 -0.957031 363.75 0.03125 Z M 337.191406 155.652344 C 336.546875 155.660156 335.902344 155.703125 335.261719 155.777344 C 334.621094 155.847656 333.984375 155.953125 333.351562 156.089844 C 332.71875 156.226562 332.097656 156.390625 331.484375 156.589844 C 330.867188 156.785156 330.265625 157.011719 329.671875 157.269531 C 329.078125 157.523438 328.5 157.808594 327.933594 158.121094 C 327.371094 158.433594 326.820312 158.773438 326.289062 159.140625 C 325.757812 159.507812 325.246094 159.898438 324.753906 160.316406 C 324.261719 160.734375 323.789062 161.171875 323.339844 161.636719 C 322.890625 162.097656 322.464844 162.582031 322.0625 163.089844 C 321.660156 163.59375 321.28125 164.117188 320.929688 164.660156 C 320.582031 165.199219 320.257812 165.757812 319.960938 166.332031 C 319.664062 166.90625 319.398438 167.492188 319.160156 168.09375 C 318.921875 168.691406 318.710938 169.304688 318.53125 169.921875 C 318.355469 170.542969 318.207031 171.171875 318.089844 171.808594 C 317.972656 172.441406 317.886719 173.082031 317.832031 173.722656 C 317.777344 174.367188 317.753906 175.011719 317.761719 175.65625 L 317.761719 353.289062 C 317.753906 353.941406 317.777344 354.59375 317.832031 355.242188 C 317.886719 355.894531 317.976562 356.539062 318.09375 357.179688 C 318.214844 357.820312 318.363281 358.453125 318.546875 359.082031 C 318.730469 359.707031 318.941406 360.324219 319.183594 360.929688 C 319.429688 361.535156 319.699219 362.125 320.003906 362.703125 C 320.304688 363.28125 320.632812 363.84375 320.992188 364.390625 C 321.347656 364.933594 321.734375 365.460938 322.140625 365.96875 C 322.550781 366.476562 322.984375 366.960938 323.445312 367.425781 C 323.902344 367.890625 324.382812 368.332031 324.882812 368.75 C 325.386719 369.167969 325.90625 369.558594 326.445312 369.921875 C 326.988281 370.289062 327.542969 370.625 328.117188 370.9375 C 328.691406 371.246094 329.28125 371.527344 329.882812 371.777344 C 330.484375 372.03125 331.097656 372.25 331.71875 372.441406 C 332.34375 372.632812 332.976562 372.792969 333.613281 372.921875 C 334.253906 373.050781 334.898438 373.144531 335.546875 373.210938 C 336.195312 373.273438 336.847656 373.308594 337.5 373.308594 C 338.152344 373.308594 338.804688 373.273438 339.453125 373.210938 C 340.101562 373.144531 340.746094 373.050781 341.386719 372.921875 C 342.023438 372.792969 342.65625 372.632812 343.28125 372.441406 C 343.902344 372.25 344.515625 372.03125 345.117188 371.777344 C 345.71875 371.527344 346.308594 371.246094 346.882812 370.9375 C 347.457031 370.625 348.011719 370.289062 348.554688 369.921875 C 349.09375 369.558594 349.613281 369.167969 350.117188 368.75 C 350.617188 368.332031 351.097656 367.890625 351.554688 367.425781 C 352.015625 366.960938 352.449219 366.476562 352.859375 365.96875 C 353.265625 365.460938 353.652344 364.933594 354.007812 364.390625 C 354.367188 363.84375 354.695312 363.28125 354.996094 362.703125 C 355.300781 362.125 355.570312 361.535156 355.816406 360.929688 C 356.058594 360.324219 356.269531 359.707031 356.453125 359.082031 C 356.636719 358.453125 356.785156 357.820312 356.90625 357.179688 C 357.023438 356.539062 357.113281 355.894531 357.167969 355.242188 C 357.222656 354.59375 357.246094 353.941406 357.238281 353.289062 L 357.238281 175.65625 C 357.246094 175 357.222656 174.34375 357.164062 173.6875 C 357.109375 173.03125 357.019531 172.378906 356.898438 171.730469 C 356.773438 171.082031 356.621094 170.445312 356.433594 169.8125 C 356.25 169.179688 356.03125 168.558594 355.785156 167.949219 C 355.535156 167.339844 355.257812 166.742188 354.949219 166.160156 C 354.640625 165.578125 354.304688 165.015625 353.941406 164.464844 C 353.578125 163.917969 353.1875 163.386719 352.769531 162.878906 C 352.351562 162.371094 351.910156 161.882812 351.445312 161.417969 C 350.976562 160.953125 350.488281 160.511719 349.980469 160.09375 C 349.46875 159.679688 348.9375 159.289062 348.390625 158.925781 C 347.839844 158.5625 347.273438 158.226562 346.691406 157.917969 C 346.109375 157.613281 345.511719 157.335938 344.902344 157.089844 C 344.292969 156.84375 343.671875 156.625 343.039062 156.441406 C 342.40625 156.257812 341.765625 156.105469 341.117188 155.984375 C 340.472656 155.863281 339.820312 155.773438 339.164062 155.71875 C 338.507812 155.664062 337.851562 155.640625 337.191406 155.652344 Z M 258.246094 195.125 C 257.597656 195.136719 256.957031 195.175781 256.3125 195.25 C 255.671875 195.324219 255.035156 195.425781 254.40625 195.5625 C 253.773438 195.699219 253.148438 195.867188 252.535156 196.0625 C 251.921875 196.257812 251.316406 196.484375 250.722656 196.742188 C 250.132812 196.996094 249.550781 197.28125 248.988281 197.59375 C 248.421875 197.90625 247.875 198.246094 247.34375 198.613281 C 246.8125 198.980469 246.300781 199.371094 245.804688 199.789062 C 245.3125 200.207031 244.84375 200.648438 244.390625 201.109375 C 243.941406 201.574219 243.515625 202.058594 243.113281 202.5625 C 242.710938 203.066406 242.335938 203.589844 241.984375 204.132812 C 241.632812 204.675781 241.308594 205.234375 241.011719 205.804688 C 240.71875 206.378906 240.449219 206.96875 240.210938 207.566406 C 239.972656 208.167969 239.765625 208.777344 239.585938 209.398438 C 239.40625 210.019531 239.257812 210.644531 239.140625 211.28125 C 239.023438 211.914062 238.9375 212.554688 238.882812 213.199219 C 238.828125 213.839844 238.808594 214.484375 238.816406 215.132812 L 238.816406 353.289062 C 238.804688 353.941406 238.828125 354.59375 238.886719 355.242188 C 238.941406 355.894531 239.027344 356.539062 239.148438 357.179688 C 239.265625 357.820312 239.417969 358.453125 239.597656 359.082031 C 239.78125 359.707031 239.996094 360.324219 240.238281 360.929688 C 240.480469 361.535156 240.753906 362.125 241.054688 362.703125 C 241.355469 363.28125 241.6875 363.84375 242.042969 364.390625 C 242.402344 364.933594 242.785156 365.460938 243.195312 365.96875 C 243.605469 366.476562 244.039062 366.960938 244.496094 367.425781 C 244.953125 367.890625 245.433594 368.332031 245.9375 368.75 C 246.4375 369.164062 246.960938 369.558594 247.5 369.921875 C 248.039062 370.289062 248.597656 370.625 249.171875 370.933594 C 249.746094 371.246094 250.332031 371.527344 250.933594 371.777344 C 251.535156 372.03125 252.148438 372.25 252.773438 372.441406 C 253.398438 372.632812 254.027344 372.792969 254.667969 372.921875 C 255.308594 373.050781 255.953125 373.144531 256.601562 373.210938 C 257.25 373.273438 257.898438 373.308594 258.550781 373.308594 C 259.203125 373.308594 259.855469 373.273438 260.503906 373.210938 C 261.152344 373.144531 261.796875 373.050781 262.4375 372.921875 C 263.078125 372.792969 263.707031 372.632812 264.332031 372.441406 C 264.957031 372.25 265.570312 372.03125 266.171875 371.777344 C 266.773438 371.527344 267.359375 371.246094 267.933594 370.933594 C 268.507812 370.625 269.066406 370.289062 269.605469 369.921875 C 270.144531 369.558594 270.667969 369.164062 271.167969 368.75 C 271.671875 368.332031 272.148438 367.890625 272.609375 367.425781 C 273.066406 366.960938 273.5 366.476562 273.910156 365.96875 C 274.320312 365.460938 274.703125 364.933594 275.0625 364.390625 C 275.417969 363.84375 275.75 363.28125 276.050781 362.703125 C 276.351562 362.125 276.625 361.535156 276.867188 360.929688 C 277.109375 360.324219 277.324219 359.707031 277.507812 359.082031 C 277.6875 358.453125 277.839844 357.820312 277.957031 357.179688 C 278.078125 356.539062 278.164062 355.894531 278.21875 355.242188 C 278.277344 354.59375 278.296875 353.941406 278.289062 353.289062 L 278.289062 215.132812 C 278.296875 214.472656 278.273438 213.816406 278.21875 213.160156 C 278.160156 212.503906 278.070312 211.851562 277.949219 211.203125 C 277.828125 210.558594 277.671875 209.917969 277.488281 209.285156 C 277.300781 208.65625 277.085938 208.035156 276.835938 207.425781 C 276.589844 206.8125 276.308594 206.21875 276.003906 205.636719 C 275.695312 205.054688 275.359375 204.488281 274.996094 203.9375 C 274.628906 203.390625 274.238281 202.863281 273.820312 202.351562 C 273.40625 201.84375 272.960938 201.355469 272.496094 200.890625 C 272.03125 200.425781 271.542969 199.984375 271.03125 199.566406 C 270.523438 199.152344 269.992188 198.761719 269.441406 198.398438 C 268.894531 198.035156 268.328125 197.699219 267.746094 197.394531 C 267.160156 197.085938 266.566406 196.808594 265.953125 196.5625 C 265.34375 196.316406 264.722656 196.101562 264.089844 195.914062 C 263.457031 195.730469 262.820312 195.578125 262.171875 195.457031 C 261.523438 195.335938 260.871094 195.25 260.214844 195.191406 C 259.558594 195.136719 258.902344 195.113281 258.246094 195.125 Z M 179.296875 234.597656 C 178.652344 234.609375 178.007812 234.648438 177.367188 234.722656 C 176.726562 234.796875 176.089844 234.902344 175.457031 235.035156 C 174.824219 235.171875 174.203125 235.339844 173.585938 235.535156 C 172.972656 235.734375 172.367188 235.960938 171.777344 236.214844 C 171.183594 236.472656 170.605469 236.753906 170.039062 237.070312 C 169.476562 237.382812 168.925781 237.722656 168.394531 238.089844 C 167.863281 238.453125 167.351562 238.847656 166.859375 239.261719 C 166.367188 239.679688 165.894531 240.121094 165.445312 240.582031 C 164.996094 241.046875 164.570312 241.53125 164.167969 242.035156 C 163.765625 242.539062 163.386719 243.066406 163.035156 243.605469 C 162.6875 244.148438 162.363281 244.707031 162.066406 245.28125 C 161.769531 245.855469 161.503906 246.441406 161.265625 247.039062 C 161.023438 247.640625 160.816406 248.25 160.636719 248.871094 C 160.460938 249.492188 160.3125 250.121094 160.195312 250.753906 C 160.078125 251.390625 159.992188 252.027344 159.9375 252.671875 C 159.882812 253.316406 159.859375 253.960938 159.867188 254.605469 L 159.867188 353.289062 C 159.859375 353.941406 159.882812 354.59375 159.9375 355.242188 C 159.992188 355.894531 160.082031 356.539062 160.199219 357.179688 C 160.320312 357.820312 160.46875 358.453125 160.652344 359.082031 C 160.835938 359.707031 161.046875 360.324219 161.289062 360.929688 C 161.535156 361.535156 161.804688 362.125 162.109375 362.703125 C 162.410156 363.28125 162.738281 363.84375 163.097656 364.390625 C 163.453125 364.933594 163.839844 365.460938 164.246094 365.96875 C 164.65625 366.476562 165.089844 366.960938 165.550781 367.425781 C 166.007812 367.890625 166.488281 368.332031 166.988281 368.75 C 167.492188 369.164062 168.011719 369.558594 168.550781 369.921875 C 169.09375 370.289062 169.648438 370.625 170.222656 370.933594 C 170.796875 371.246094 171.386719 371.527344 171.988281 371.777344 C 172.589844 372.03125 173.203125 372.25 173.824219 372.441406 C 174.449219 372.632812 175.082031 372.792969 175.71875 372.921875 C 176.359375 373.050781 177.003906 373.144531 177.652344 373.210938 C 178.300781 373.273438 178.953125 373.308594 179.605469 373.308594 C 180.257812 373.308594 180.910156 373.273438 181.558594 373.210938 C 182.207031 373.144531 182.851562 373.050781 183.492188 372.921875 C 184.128906 372.792969 184.761719 372.632812 185.386719 372.441406 C 186.007812 372.25 186.621094 372.03125 187.222656 371.777344 C 187.824219 371.527344 188.414062 371.246094 188.988281 370.933594 C 189.5625 370.625 190.117188 370.289062 190.660156 369.921875 C 191.199219 369.558594 191.71875 369.164062 192.222656 368.75 C 192.722656 368.332031 193.203125 367.890625 193.660156 367.425781 C 194.117188 366.960938 194.554688 366.476562 194.960938 365.96875 C 195.371094 365.460938 195.757812 364.933594 196.113281 364.390625 C 196.472656 363.84375 196.800781 363.28125 197.101562 362.703125 C 197.40625 362.125 197.675781 361.535156 197.921875 360.929688 C 198.164062 360.324219 198.375 359.707031 198.558594 359.082031 C 198.742188 358.453125 198.890625 357.820312 199.011719 357.179688 C 199.128906 356.539062 199.21875 355.894531 199.273438 355.242188 C 199.328125 354.59375 199.351562 353.941406 199.34375 353.289062 L 199.34375 254.605469 C 199.351562 253.945312 199.328125 253.289062 199.269531 252.632812 C 199.214844 251.976562 199.125 251.324219 199.003906 250.679688 C 198.878906 250.03125 198.726562 249.390625 198.539062 248.761719 C 198.355469 248.128906 198.136719 247.507812 197.890625 246.898438 C 197.640625 246.289062 197.363281 245.691406 197.054688 245.109375 C 196.746094 244.527344 196.410156 243.960938 196.046875 243.414062 C 195.683594 242.863281 195.292969 242.335938 194.875 241.824219 C 194.457031 241.316406 194.015625 240.828125 193.550781 240.363281 C 193.082031 239.898438 192.59375 239.457031 192.085938 239.042969 C 191.574219 238.625 191.042969 238.234375 190.496094 237.871094 C 189.945312 237.507812 189.378906 237.175781 188.796875 236.867188 C 188.214844 236.558594 187.617188 236.285156 187.007812 236.035156 C 186.398438 235.789062 185.777344 235.574219 185.144531 235.390625 C 184.511719 235.203125 183.871094 235.050781 183.222656 234.929688 C 182.578125 234.808594 181.925781 234.722656 181.269531 234.667969 C 180.613281 234.609375 179.957031 234.589844 179.296875 234.597656 Z M 100.347656 274.070312 C 99.703125 274.082031 99.058594 274.125 98.417969 274.199219 C 97.777344 274.269531 97.140625 274.375 96.507812 274.511719 C 95.878906 274.644531 95.253906 274.8125 94.640625 275.007812 C 94.027344 275.207031 93.421875 275.433594 92.828125 275.6875 C 92.234375 275.945312 91.65625 276.230469 91.09375 276.542969 C 90.527344 276.855469 89.980469 277.195312 89.449219 277.5625 C 88.917969 277.929688 88.40625 278.320312 87.910156 278.738281 C 87.417969 279.152344 86.945312 279.59375 86.496094 280.058594 C 86.046875 280.519531 85.621094 281.003906 85.21875 281.507812 C 84.816406 282.015625 84.441406 282.539062 84.089844 283.082031 C 83.738281 283.621094 83.414062 284.179688 83.117188 284.753906 C 82.824219 285.328125 82.554688 285.914062 82.316406 286.515625 C 82.078125 287.113281 81.871094 287.722656 81.691406 288.34375 C 81.511719 288.964844 81.363281 289.59375 81.246094 290.226562 C 81.128906 290.863281 81.042969 291.503906 80.988281 292.144531 C 80.933594 292.789062 80.914062 293.433594 80.921875 294.078125 L 80.921875 353.289062 C 80.910156 353.941406 80.933594 354.59375 80.988281 355.242188 C 81.046875 355.894531 81.132812 356.539062 81.253906 357.179688 C 81.371094 357.820312 81.523438 358.453125 81.703125 359.082031 C 81.886719 359.707031 82.097656 360.324219 82.34375 360.929688 C 82.585938 361.535156 82.859375 362.125 83.160156 362.703125 C 83.460938 363.28125 83.792969 363.84375 84.148438 364.390625 C 84.507812 364.933594 84.890625 365.460938 85.300781 365.96875 C 85.710938 366.476562 86.144531 366.960938 86.601562 367.425781 C 87.058594 367.890625 87.539062 368.332031 88.042969 368.75 C 88.542969 369.167969 89.0625 369.558594 89.605469 369.921875 C 90.144531 370.289062 90.703125 370.625 91.277344 370.9375 C 91.851562 371.246094 92.4375 371.527344 93.039062 371.777344 C 93.640625 372.03125 94.253906 372.25 94.878906 372.441406 C 95.5 372.632812 96.132812 372.792969 96.773438 372.921875 C 97.414062 373.050781 98.058594 373.144531 98.707031 373.210938 C 99.355469 373.273438 100.003906 373.308594 100.65625 373.308594 C 101.308594 373.308594 101.960938 373.273438 102.609375 373.210938 C 103.257812 373.144531 103.902344 373.050781 104.542969 372.921875 C 105.183594 372.792969 105.8125 372.632812 106.4375 372.441406 C 107.0625 372.25 107.675781 372.03125 108.277344 371.777344 C 108.878906 371.527344 109.464844 371.246094 110.039062 370.9375 C 110.613281 370.625 111.171875 370.289062 111.710938 369.921875 C 112.25 369.558594 112.773438 369.167969 113.273438 368.75 C 113.777344 368.332031 114.253906 367.890625 114.714844 367.425781 C 115.171875 366.960938 115.605469 366.476562 116.015625 365.96875 C 116.425781 365.460938 116.808594 364.933594 117.167969 364.390625 C 117.523438 363.84375 117.855469 363.28125 118.15625 362.703125 C 118.457031 362.125 118.730469 361.535156 118.972656 360.929688 C 119.214844 360.324219 119.429688 359.707031 119.613281 359.082031 C 119.792969 358.453125 119.945312 357.820312 120.0625 357.179688 C 120.183594 356.539062 120.269531 355.894531 120.324219 355.242188 C 120.382812 354.59375 120.402344 353.941406 120.394531 353.289062 L 120.394531 294.078125 C 120.402344 293.421875 120.378906 292.761719 120.324219 292.105469 C 120.265625 291.449219 120.175781 290.800781 120.054688 290.152344 C 119.933594 289.503906 119.777344 288.867188 119.59375 288.234375 C 119.40625 287.601562 119.191406 286.980469 118.941406 286.371094 C 118.695312 285.761719 118.414062 285.164062 118.109375 284.582031 C 117.800781 284 117.464844 283.433594 117.097656 282.886719 C 116.734375 282.339844 116.34375 281.808594 115.925781 281.300781 C 115.507812 280.789062 115.066406 280.304688 114.601562 279.835938 C 114.136719 279.371094 113.648438 278.933594 113.136719 278.515625 C 112.628906 278.097656 112.097656 277.710938 111.546875 277.347656 C 111 276.984375 110.433594 276.648438 109.851562 276.339844 C 109.265625 276.035156 108.671875 275.757812 108.058594 275.511719 C 107.449219 275.261719 106.828125 275.046875 106.195312 274.863281 C 105.5625 274.679688 104.925781 274.523438 104.277344 274.40625 C 103.628906 274.285156 102.976562 274.195312 102.320312 274.140625 C 101.664062 274.085938 101.007812 274.0625 100.347656 274.070312 Z M 21.402344 313.546875 C 20.757812 313.554688 20.113281 313.597656 19.472656 313.671875 C 18.828125 313.746094 18.195312 313.847656 17.5625 313.984375 C 16.929688 314.121094 16.308594 314.285156 15.691406 314.484375 C 15.078125 314.679688 14.472656 314.90625 13.882812 315.164062 C 13.289062 315.417969 12.710938 315.703125 12.144531 316.015625 C 11.582031 316.328125 11.03125 316.667969 10.5 317.035156 C 9.96875 317.402344 9.457031 317.792969 8.964844 318.210938 C 8.472656 318.628906 8 319.066406 7.550781 319.53125 C 7.101562 319.996094 6.675781 320.476562 6.273438 320.984375 C 5.871094 321.488281 5.492188 322.011719 5.140625 322.554688 C 4.792969 323.097656 4.46875 323.652344 4.171875 324.226562 C 3.875 324.800781 3.609375 325.386719 3.367188 325.988281 C 3.128906 326.589844 2.921875 327.199219 2.742188 327.820312 C 2.5625 328.4375 2.417969 329.066406 2.300781 329.703125 C 2.183594 330.335938 2.097656 330.976562 2.042969 331.621094 C 1.988281 332.261719 1.964844 332.90625 1.972656 333.550781 L 1.972656 353.289062 C 1.964844 353.941406 1.988281 354.59375 2.042969 355.242188 C 2.097656 355.894531 2.183594 356.539062 2.304688 357.179688 C 2.425781 357.820312 2.574219 358.453125 2.757812 359.082031 C 2.9375 359.707031 3.152344 360.324219 3.394531 360.929688 C 3.636719 361.535156 3.910156 362.125 4.210938 362.703125 C 4.515625 363.28125 4.84375 363.84375 5.203125 364.390625 C 5.558594 364.933594 5.941406 365.460938 6.351562 365.96875 C 6.761719 366.476562 7.195312 366.960938 7.65625 367.425781 C 8.113281 367.890625 8.59375 368.332031 9.09375 368.75 C 9.597656 369.167969 10.117188 369.558594 10.65625 369.921875 C 11.199219 370.289062 11.753906 370.625 12.328125 370.9375 C 12.902344 371.246094 13.492188 371.527344 14.09375 371.777344 C 14.695312 372.03125 15.308594 372.25 15.929688 372.441406 C 16.554688 372.632812 17.1875 372.792969 17.824219 372.921875 C 18.464844 373.050781 19.109375 373.144531 19.757812 373.210938 C 20.40625 373.273438 21.058594 373.308594 21.710938 373.308594 C 22.363281 373.308594 23.011719 373.273438 23.664062 373.210938 C 24.3125 373.144531 24.957031 373.050781 25.59375 372.921875 C 26.234375 372.792969 26.867188 372.632812 27.492188 372.441406 C 28.113281 372.25 28.726562 372.03125 29.328125 371.777344 C 29.929688 371.527344 30.519531 371.246094 31.09375 370.9375 C 31.667969 370.625 32.222656 370.289062 32.765625 369.921875 C 33.304688 369.558594 33.824219 369.167969 34.328125 368.75 C 34.828125 368.332031 35.308594 367.890625 35.765625 367.425781 C 36.222656 366.960938 36.660156 366.476562 37.066406 365.96875 C 37.476562 365.460938 37.863281 364.933594 38.21875 364.390625 C 38.578125 363.84375 38.90625 363.28125 39.207031 362.703125 C 39.511719 362.125 39.78125 361.535156 40.027344 360.929688 C 40.269531 360.324219 40.480469 359.707031 40.664062 359.082031 C 40.847656 358.453125 40.996094 357.820312 41.117188 357.179688 C 41.234375 356.539062 41.324219 355.894531 41.378906 355.242188 C 41.433594 354.59375 41.457031 353.941406 41.449219 353.289062 L 41.449219 333.550781 C 41.457031 332.894531 41.433594 332.238281 41.375 331.582031 C 41.320312 330.925781 41.230469 330.273438 41.109375 329.625 C 40.984375 328.980469 40.832031 328.339844 40.644531 327.707031 C 40.460938 327.074219 40.242188 326.453125 39.996094 325.84375 C 39.746094 325.234375 39.46875 324.640625 39.160156 324.054688 C 38.851562 323.472656 38.515625 322.910156 38.152344 322.359375 C 37.789062 321.8125 37.398438 321.28125 36.980469 320.773438 C 36.5625 320.265625 36.121094 319.777344 35.65625 319.3125 C 35.1875 318.847656 34.699219 318.40625 34.191406 317.988281 C 33.679688 317.574219 33.148438 317.183594 32.601562 316.820312 C 32.050781 316.457031 31.484375 316.121094 30.902344 315.816406 C 30.320312 315.507812 29.722656 315.230469 29.113281 314.984375 C 28.503906 314.738281 27.882812 314.519531 27.25 314.335938 C 26.617188 314.152344 25.976562 314 25.328125 313.878906 C 24.683594 313.757812 24.03125 313.667969 23.375 313.613281 C 22.71875 313.558594 22.0625 313.535156 21.402344 313.546875 Z M 21.402344 313.546875 " fill-opacity="1" fill-rule="nonzero"/></svg>