<svg xmlns="http://www.w3.org/2000/svg" xmlns:xlink="http://www.w3.org/1999/xlink" width="500" zoomAndPan="magnify" viewBox="0 0 375 374.999991" height="500" preserveAspectRatio="xMidYMid meet" version="1.0"><path fill="#ffffff" d="M 93.527344 94.164062 L 280.835938 94.164062 L 280.835938 281.472656 L 93.527344 281.472656 Z M 93.527344 94.164062 " fill-opacity="1" fill-rule="nonzero"/><path fill="#ffffff" d="M 366.054688 105.089844 C 366.53125 105.21875 367.011719 105.292969 367.503906 105.308594 C 367.992188 105.328125 368.480469 105.289062 368.960938 105.195312 C 369.441406 105.097656 369.90625 104.949219 370.355469 104.75 C 370.800781 104.546875 371.222656 104.296875 371.613281 104 C 372 103.703125 372.351562 103.363281 372.664062 102.984375 C 372.976562 102.605469 373.242188 102.195312 373.457031 101.753906 C 373.675781 101.316406 373.839844 100.855469 373.953125 100.378906 C 374.0625 99.898438 374.121094 99.414062 374.121094 98.925781 C 374.121094 98.433594 374.0625 97.949219 373.953125 97.472656 C 373.839844 96.992188 373.675781 96.535156 373.457031 96.09375 C 373.242188 95.652344 372.976562 95.246094 372.664062 94.867188 C 372.351562 94.484375 372 94.148438 371.613281 93.847656 C 371.222656 93.550781 370.800781 93.300781 370.355469 93.101562 C 369.90625 92.898438 369.441406 92.75 368.960938 92.65625 C 368.480469 92.5625 367.992188 92.523438 367.503906 92.539062 C 367.011719 92.558594 366.53125 92.632812 366.054688 92.761719 L 330.027344 92.761719 L 330.027344 51.171875 C 330.027344 50.75 329.984375 50.335938 329.902344 49.925781 C 329.820312 49.511719 329.699219 49.113281 329.539062 48.726562 C 329.378906 48.339844 329.183594 47.972656 328.949219 47.621094 C 328.714844 47.273438 328.449219 46.949219 328.15625 46.652344 C 327.859375 46.355469 327.535156 46.09375 327.1875 45.859375 C 326.835938 45.625 326.46875 45.429688 326.082031 45.269531 C 325.695312 45.109375 325.292969 44.988281 324.882812 44.90625 C 324.472656 44.824219 324.054688 44.78125 323.636719 44.78125 L 282.238281 44.78125 L 282.238281 8.945312 C 282.328125 8.703125 282.398438 8.457031 282.457031 8.210938 C 282.515625 7.960938 282.558594 7.707031 282.585938 7.453125 C 282.613281 7.199219 282.625 6.945312 282.625 6.691406 C 282.621094 6.433594 282.601562 6.179688 282.566406 5.925781 C 282.535156 5.671875 282.484375 5.421875 282.421875 5.175781 C 282.359375 4.925781 282.28125 4.683594 282.1875 4.445312 C 282.09375 4.207031 281.988281 3.976562 281.867188 3.75 C 281.746094 3.523438 281.613281 3.308594 281.464844 3.097656 C 281.320312 2.886719 281.160156 2.6875 280.992188 2.496094 C 280.820312 2.308594 280.636719 2.128906 280.445312 1.960938 C 280.253906 1.792969 280.050781 1.636719 279.839844 1.492188 C 279.628906 1.347656 279.410156 1.214844 279.183594 1.097656 C 278.957031 0.980469 278.722656 0.875 278.484375 0.785156 C 278.246094 0.695312 278 0.621094 277.753906 0.558594 C 277.503906 0.496094 277.253906 0.453125 277 0.421875 C 276.746094 0.390625 276.492188 0.375 276.234375 0.375 C 275.980469 0.375 275.722656 0.390625 275.472656 0.421875 C 275.21875 0.453125 274.964844 0.496094 274.71875 0.558594 C 274.46875 0.621094 274.226562 0.695312 273.984375 0.785156 C 273.746094 0.875 273.511719 0.980469 273.285156 1.097656 C 273.058594 1.214844 272.839844 1.347656 272.628906 1.492188 C 272.417969 1.636719 272.21875 1.792969 272.023438 1.960938 C 271.832031 2.128906 271.652344 2.308594 271.480469 2.496094 C 271.308594 2.6875 271.152344 2.886719 271.003906 3.097656 C 270.855469 3.308594 270.722656 3.523438 270.601562 3.75 C 270.480469 3.976562 270.375 4.207031 270.28125 4.445312 C 270.191406 4.683594 270.109375 4.925781 270.046875 5.175781 C 269.984375 5.421875 269.933594 5.671875 269.902344 5.925781 C 269.867188 6.179688 269.851562 6.433594 269.847656 6.691406 C 269.84375 6.945312 269.855469 7.199219 269.882812 7.453125 C 269.910156 7.707031 269.953125 7.960938 270.011719 8.210938 C 270.070312 8.457031 270.144531 8.703125 270.230469 8.945312 L 270.230469 44.972656 L 238.289062 44.972656 L 238.289062 8.945312 C 238.289062 8.523438 238.246094 8.109375 238.164062 7.699219 C 238.082031 7.285156 237.960938 6.886719 237.800781 6.5 C 237.640625 6.113281 237.445312 5.742188 237.210938 5.394531 C 236.976562 5.046875 236.714844 4.722656 236.417969 4.425781 C 236.121094 4.128906 235.796875 3.863281 235.449219 3.632812 C 235.101562 3.398438 234.730469 3.203125 234.34375 3.042969 C 233.957031 2.882812 233.558594 2.761719 233.144531 2.679688 C 232.734375 2.597656 232.320312 2.554688 231.898438 2.554688 C 231.480469 2.554688 231.066406 2.597656 230.652344 2.679688 C 230.242188 2.761719 229.84375 2.882812 229.453125 3.042969 C 229.066406 3.203125 228.699219 3.398438 228.351562 3.632812 C 228 3.863281 227.679688 4.128906 227.382812 4.425781 C 227.085938 4.722656 226.820312 5.046875 226.585938 5.394531 C 226.355469 5.742188 226.15625 6.113281 225.996094 6.5 C 225.835938 6.886719 225.714844 7.285156 225.632812 7.699219 C 225.550781 8.109375 225.511719 8.523438 225.511719 8.945312 L 225.511719 44.972656 L 193.570312 44.972656 L 193.570312 8.945312 C 193.570312 8.523438 193.527344 8.109375 193.445312 7.699219 C 193.363281 7.285156 193.242188 6.886719 193.082031 6.5 C 192.921875 6.113281 192.726562 5.742188 192.492188 5.394531 C 192.257812 5.046875 191.996094 4.722656 191.699219 4.425781 C 191.402344 4.128906 191.078125 3.863281 190.730469 3.632812 C 190.382812 3.398438 190.011719 3.203125 189.625 3.042969 C 189.238281 2.882812 188.839844 2.761719 188.425781 2.679688 C 188.015625 2.597656 187.601562 2.554688 187.179688 2.554688 C 186.761719 2.554688 186.34375 2.597656 185.933594 2.679688 C 185.523438 2.761719 185.125 2.882812 184.734375 3.042969 C 184.347656 3.203125 183.980469 3.398438 183.632812 3.632812 C 183.28125 3.863281 182.960938 4.128906 182.664062 4.425781 C 182.367188 4.722656 182.101562 5.046875 181.867188 5.394531 C 181.636719 5.742188 181.4375 6.113281 181.277344 6.5 C 181.117188 6.886719 180.996094 7.285156 180.914062 7.699219 C 180.832031 8.109375 180.792969 8.523438 180.792969 8.945312 L 180.792969 44.972656 L 148.851562 44.972656 L 148.851562 8.945312 C 148.980469 8.46875 149.050781 7.988281 149.070312 7.496094 C 149.085938 7.007812 149.046875 6.519531 148.953125 6.039062 C 148.859375 5.558594 148.710938 5.09375 148.511719 4.644531 C 148.308594 4.195312 148.058594 3.777344 147.761719 3.386719 C 147.460938 3 147.125 2.648438 146.746094 2.335938 C 146.367188 2.023438 145.957031 1.757812 145.515625 1.542969 C 145.074219 1.324219 144.617188 1.160156 144.136719 1.046875 C 143.660156 0.9375 143.175781 0.878906 142.683594 0.878906 C 142.195312 0.878906 141.710938 0.9375 141.230469 1.046875 C 140.753906 1.160156 140.292969 1.324219 139.855469 1.542969 C 139.414062 1.757812 139.003906 2.023438 138.625 2.335938 C 138.246094 2.648438 137.910156 3 137.609375 3.386719 C 137.3125 3.777344 137.0625 4.195312 136.859375 4.644531 C 136.660156 5.09375 136.511719 5.558594 136.417969 6.039062 C 136.320312 6.519531 136.285156 7.007812 136.300781 7.496094 C 136.320312 7.988281 136.390625 8.46875 136.519531 8.945312 L 136.519531 44.972656 L 104.578125 44.972656 L 104.578125 8.945312 C 104.707031 8.46875 104.78125 7.988281 104.796875 7.496094 C 104.816406 7.007812 104.777344 6.519531 104.683594 6.039062 C 104.589844 5.558594 104.441406 5.09375 104.238281 4.644531 C 104.035156 4.195312 103.785156 3.777344 103.488281 3.386719 C 103.191406 3 102.851562 2.648438 102.472656 2.335938 C 102.09375 2.023438 101.683594 1.757812 101.242188 1.542969 C 100.804688 1.324219 100.34375 1.160156 99.867188 1.046875 C 99.390625 0.9375 98.90625 0.878906 98.414062 0.878906 C 97.921875 0.878906 97.4375 0.9375 96.960938 1.046875 C 96.480469 1.160156 96.023438 1.324219 95.582031 1.542969 C 95.144531 1.757812 94.734375 2.023438 94.355469 2.335938 C 93.976562 2.648438 93.636719 3 93.339844 3.386719 C 93.039062 3.777344 92.789062 4.195312 92.589844 4.644531 C 92.386719 5.09375 92.238281 5.558594 92.144531 6.039062 C 92.050781 6.519531 92.011719 7.007812 92.027344 7.496094 C 92.046875 7.988281 92.121094 8.46875 92.25 8.945312 L 92.25 44.972656 L 50.53125 44.972656 C 50.113281 44.972656 49.699219 45.015625 49.285156 45.097656 C 48.875 45.179688 48.476562 45.300781 48.085938 45.460938 C 47.699219 45.621094 47.332031 45.816406 46.984375 46.050781 C 46.632812 46.285156 46.3125 46.550781 46.015625 46.84375 C 45.71875 47.140625 45.453125 47.464844 45.21875 47.8125 C 44.988281 48.164062 44.789062 48.53125 44.628906 48.917969 C 44.46875 49.304688 44.347656 49.707031 44.265625 50.117188 C 44.183594 50.527344 44.144531 50.945312 44.144531 51.363281 L 44.144531 92.953125 L 8.304688 92.953125 C 7.832031 92.824219 7.347656 92.75 6.859375 92.730469 C 6.367188 92.714844 5.882812 92.753906 5.398438 92.847656 C 4.917969 92.941406 4.453125 93.089844 4.007812 93.292969 C 3.558594 93.492188 3.140625 93.742188 2.75 94.042969 C 2.359375 94.339844 2.007812 94.679688 1.695312 95.058594 C 1.382812 95.4375 1.121094 95.84375 0.902344 96.285156 C 0.683594 96.726562 0.519531 97.183594 0.410156 97.664062 C 0.296875 98.140625 0.242188 98.625 0.242188 99.117188 C 0.242188 99.605469 0.296875 100.089844 0.410156 100.570312 C 0.519531 101.046875 0.683594 101.507812 0.902344 101.945312 C 1.121094 102.386719 1.382812 102.796875 1.695312 103.175781 C 2.007812 103.554688 2.359375 103.894531 2.75 104.191406 C 3.140625 104.488281 3.558594 104.738281 4.007812 104.941406 C 4.453125 105.144531 4.917969 105.289062 5.398438 105.386719 C 5.882812 105.480469 6.367188 105.519531 6.859375 105.5 C 7.347656 105.484375 7.832031 105.410156 8.304688 105.28125 L 44.335938 105.28125 L 44.335938 137.222656 L 8.304688 137.222656 C 7.828125 137.085938 7.34375 137.003906 6.847656 136.976562 C 6.351562 136.949219 5.859375 136.980469 5.375 137.070312 C 4.886719 137.160156 4.414062 137.304688 3.960938 137.5 C 3.503906 137.699219 3.078125 137.949219 2.683594 138.246094 C 2.285156 138.542969 1.929688 138.882812 1.613281 139.261719 C 1.292969 139.644531 1.023438 140.054688 0.800781 140.5 C 0.582031 140.941406 0.414062 141.40625 0.296875 141.886719 C 0.183594 142.371094 0.128906 142.859375 0.128906 143.355469 C 0.128906 143.851562 0.183594 144.339844 0.296875 144.824219 C 0.414062 145.304688 0.582031 145.769531 0.800781 146.214844 C 1.023438 146.65625 1.292969 147.070312 1.613281 147.449219 C 1.929688 147.832031 2.285156 148.167969 2.683594 148.464844 C 3.078125 148.765625 3.503906 149.011719 3.960938 149.210938 C 4.414062 149.410156 4.886719 149.550781 5.375 149.640625 C 5.859375 149.730469 6.351562 149.761719 6.847656 149.734375 C 7.34375 149.710938 7.828125 149.628906 8.304688 149.488281 L 44.335938 149.488281 L 44.335938 181.429688 L 8.304688 181.429688 C 7.886719 181.429688 7.46875 181.472656 7.058594 181.554688 C 6.648438 181.636719 6.246094 181.757812 5.859375 181.917969 C 5.472656 182.078125 5.105469 182.273438 4.753906 182.507812 C 4.40625 182.742188 4.085938 183.003906 3.789062 183.300781 C 3.492188 183.597656 3.226562 183.921875 2.992188 184.269531 C 2.761719 184.617188 2.5625 184.988281 2.402344 185.375 C 2.242188 185.761719 2.121094 186.160156 2.039062 186.574219 C 1.957031 186.984375 1.917969 187.398438 1.917969 187.820312 C 1.917969 188.238281 1.957031 188.652344 2.039062 189.066406 C 2.121094 189.476562 2.242188 189.875 2.402344 190.265625 C 2.5625 190.652344 2.761719 191.019531 2.992188 191.367188 C 3.226562 191.71875 3.492188 192.039062 3.789062 192.335938 C 4.085938 192.632812 4.40625 192.898438 4.753906 193.132812 C 5.105469 193.363281 5.472656 193.5625 5.859375 193.722656 C 6.246094 193.882812 6.648438 194.003906 7.058594 194.085938 C 7.46875 194.167969 7.886719 194.207031 8.304688 194.207031 L 44.335938 194.207031 L 44.335938 226.148438 L 8.304688 226.148438 C 7.832031 226.019531 7.347656 225.949219 6.859375 225.929688 C 6.367188 225.914062 5.882812 225.953125 5.398438 226.046875 C 4.917969 226.140625 4.453125 226.289062 4.007812 226.488281 C 3.558594 226.691406 3.140625 226.941406 2.75 227.238281 C 2.359375 227.539062 2.007812 227.875 1.695312 228.253906 C 1.382812 228.632812 1.121094 229.042969 0.902344 229.484375 C 0.683594 229.925781 0.519531 230.382812 0.410156 230.859375 C 0.296875 231.339844 0.242188 231.824219 0.242188 232.316406 C 0.242188 232.804688 0.296875 233.289062 0.410156 233.769531 C 0.519531 234.246094 0.683594 234.707031 0.902344 235.144531 C 1.121094 235.585938 1.382812 235.996094 1.695312 236.375 C 2.007812 236.753906 2.359375 237.089844 2.75 237.390625 C 3.140625 237.6875 3.558594 237.9375 4.007812 238.140625 C 4.453125 238.339844 4.917969 238.488281 5.398438 238.582031 C 5.882812 238.679688 6.367188 238.714844 6.859375 238.699219 C 7.347656 238.679688 7.832031 238.609375 8.304688 238.480469 L 44.335938 238.480469 L 44.335938 270.421875 L 8.304688 270.421875 C 7.832031 270.292969 7.347656 270.21875 6.859375 270.203125 C 6.367188 270.183594 5.882812 270.222656 5.398438 270.316406 C 4.917969 270.410156 4.453125 270.558594 4.007812 270.761719 C 3.558594 270.964844 3.140625 271.214844 2.75 271.511719 C 2.359375 271.808594 2.007812 272.148438 1.695312 272.527344 C 1.382812 272.90625 1.121094 273.316406 0.902344 273.753906 C 0.683594 274.195312 0.519531 274.65625 0.410156 275.132812 C 0.296875 275.609375 0.242188 276.09375 0.242188 276.585938 C 0.242188 277.078125 0.296875 277.5625 0.410156 278.039062 C 0.519531 278.519531 0.683594 278.976562 0.902344 279.417969 C 1.121094 279.855469 1.382812 280.265625 1.695312 280.644531 C 2.007812 281.023438 2.359375 281.363281 2.75 281.660156 C 3.140625 281.960938 3.558594 282.210938 4.007812 282.410156 C 4.453125 282.613281 4.917969 282.761719 5.398438 282.855469 C 5.882812 282.949219 6.367188 282.988281 6.859375 282.96875 C 7.347656 282.953125 7.832031 282.878906 8.304688 282.75 L 44.335938 282.75 L 44.335938 324.339844 C 44.335938 324.757812 44.375 325.175781 44.457031 325.585938 C 44.539062 325.996094 44.660156 326.398438 44.820312 326.785156 C 44.980469 327.171875 45.179688 327.539062 45.414062 327.890625 C 45.644531 328.238281 45.910156 328.558594 46.207031 328.855469 C 46.503906 329.152344 46.824219 329.417969 47.175781 329.652344 C 47.523438 329.882812 47.890625 330.082031 48.277344 330.242188 C 48.667969 330.402344 49.066406 330.523438 49.476562 330.605469 C 49.890625 330.6875 50.304688 330.726562 50.722656 330.726562 L 92.3125 330.726562 L 92.3125 366.695312 C 92.183594 367.167969 92.109375 367.652344 92.09375 368.140625 C 92.074219 368.632812 92.113281 369.117188 92.207031 369.601562 C 92.304688 370.082031 92.449219 370.546875 92.652344 370.992188 C 92.855469 371.441406 93.105469 371.859375 93.402344 372.25 C 93.699219 372.640625 94.039062 372.992188 94.417969 373.304688 C 94.796875 373.613281 95.207031 373.878906 95.648438 374.097656 C 96.085938 374.316406 96.546875 374.480469 97.023438 374.589844 C 97.503906 374.703125 97.988281 374.757812 98.476562 374.757812 C 98.96875 374.757812 99.453125 374.703125 99.929688 374.589844 C 100.410156 374.480469 100.867188 374.316406 101.308594 374.097656 C 101.75 373.878906 102.15625 373.613281 102.535156 373.304688 C 102.914062 372.992188 103.253906 372.640625 103.550781 372.25 C 103.851562 371.859375 104.101562 371.441406 104.300781 370.992188 C 104.503906 370.546875 104.652344 370.082031 104.746094 369.601562 C 104.839844 369.117188 104.878906 368.632812 104.863281 368.140625 C 104.84375 367.652344 104.769531 367.167969 104.640625 366.695312 L 104.640625 330.664062 L 136.585938 330.664062 L 136.585938 366.695312 C 136.445312 367.171875 136.363281 367.65625 136.335938 368.152344 C 136.3125 368.648438 136.34375 369.136719 136.433594 369.625 C 136.519531 370.113281 136.664062 370.585938 136.863281 371.039062 C 137.0625 371.496094 137.308594 371.921875 137.605469 372.316406 C 137.902344 372.714844 138.242188 373.070312 138.625 373.386719 C 139.003906 373.707031 139.417969 373.976562 139.859375 374.199219 C 140.304688 374.417969 140.765625 374.585938 141.25 374.703125 C 141.730469 374.816406 142.222656 374.871094 142.71875 374.871094 C 143.214844 374.871094 143.703125 374.816406 144.183594 374.703125 C 144.667969 374.585938 145.128906 374.417969 145.574219 374.199219 C 146.019531 373.976562 146.429688 373.707031 146.8125 373.386719 C 147.191406 373.070312 147.53125 372.714844 147.828125 372.316406 C 148.125 371.921875 148.375 371.496094 148.570312 371.039062 C 148.769531 370.585938 148.914062 370.113281 149.003906 369.625 C 149.089844 369.140625 149.121094 368.648438 149.097656 368.152344 C 149.070312 367.65625 148.988281 367.171875 148.851562 366.695312 L 148.851562 330.664062 L 180.792969 330.664062 L 180.792969 366.695312 C 180.792969 367.113281 180.832031 367.53125 180.914062 367.941406 C 180.996094 368.351562 181.117188 368.753906 181.277344 369.140625 C 181.4375 369.527344 181.636719 369.894531 181.867188 370.246094 C 182.101562 370.59375 182.367188 370.914062 182.664062 371.210938 C 182.960938 371.507812 183.28125 371.773438 183.632812 372.007812 C 183.980469 372.238281 184.347656 372.4375 184.734375 372.597656 C 185.125 372.757812 185.523438 372.878906 185.933594 372.960938 C 186.34375 373.042969 186.761719 373.082031 187.179688 373.082031 C 187.601562 373.082031 188.015625 373.042969 188.425781 372.960938 C 188.839844 372.878906 189.238281 372.757812 189.625 372.597656 C 190.011719 372.4375 190.382812 372.238281 190.730469 372.007812 C 191.078125 371.773438 191.402344 371.507812 191.699219 371.210938 C 191.996094 370.914062 192.257812 370.59375 192.492188 370.246094 C 192.726562 369.894531 192.921875 369.527344 193.082031 369.140625 C 193.242188 368.753906 193.363281 368.351562 193.445312 367.941406 C 193.527344 367.53125 193.570312 367.113281 193.570312 366.695312 L 193.570312 330.664062 L 225.511719 330.664062 L 225.511719 366.695312 C 225.382812 367.167969 225.308594 367.652344 225.292969 368.140625 C 225.273438 368.632812 225.3125 369.117188 225.40625 369.601562 C 225.5 370.082031 225.648438 370.546875 225.851562 370.992188 C 226.050781 371.441406 226.300781 371.859375 226.601562 372.25 C 226.898438 372.640625 227.238281 372.992188 227.617188 373.304688 C 227.996094 373.613281 228.40625 373.878906 228.84375 374.097656 C 229.285156 374.316406 229.746094 374.480469 230.222656 374.589844 C 230.699219 374.703125 231.183594 374.757812 231.675781 374.757812 C 232.167969 374.757812 232.652344 374.703125 233.128906 374.589844 C 233.605469 374.480469 234.066406 374.316406 234.507812 374.097656 C 234.945312 373.878906 235.355469 373.613281 235.734375 373.304688 C 236.113281 372.992188 236.453125 372.640625 236.75 372.25 C 237.050781 371.859375 237.300781 371.441406 237.5 370.992188 C 237.703125 370.546875 237.851562 370.082031 237.945312 369.601562 C 238.039062 369.117188 238.078125 368.632812 238.058594 368.140625 C 238.042969 367.652344 237.96875 367.167969 237.839844 366.695312 L 237.839844 330.664062 L 269.78125 330.664062 L 269.78125 366.695312 C 269.652344 367.167969 269.582031 367.652344 269.5625 368.140625 C 269.546875 368.632812 269.585938 369.117188 269.679688 369.601562 C 269.773438 370.082031 269.921875 370.546875 270.121094 370.992188 C 270.324219 371.441406 270.574219 371.859375 270.871094 372.25 C 271.171875 372.640625 271.507812 372.992188 271.886719 373.304688 C 272.265625 373.613281 272.675781 373.878906 273.117188 374.097656 C 273.558594 374.316406 274.015625 374.480469 274.496094 374.589844 C 274.972656 374.703125 275.457031 374.757812 275.949219 374.757812 C 276.4375 374.757812 276.921875 374.703125 277.402344 374.589844 C 277.878906 374.480469 278.339844 374.316406 278.777344 374.097656 C 279.21875 373.878906 279.628906 373.613281 280.007812 373.304688 C 280.386719 372.992188 280.726562 372.640625 281.023438 372.25 C 281.320312 371.859375 281.570312 371.441406 281.773438 370.992188 C 281.972656 370.546875 282.121094 370.082031 282.214844 369.601562 C 282.3125 369.117188 282.347656 368.632812 282.332031 368.140625 C 282.3125 367.652344 282.242188 367.167969 282.113281 366.695312 L 282.113281 330.664062 L 323.699219 330.664062 C 324.121094 330.664062 324.535156 330.625 324.949219 330.542969 C 325.359375 330.460938 325.757812 330.339844 326.144531 330.179688 C 326.535156 330.015625 326.902344 329.820312 327.25 329.585938 C 327.597656 329.355469 327.921875 329.089844 328.21875 328.792969 C 328.515625 328.496094 328.78125 328.175781 329.011719 327.824219 C 329.246094 327.476562 329.441406 327.109375 329.601562 326.71875 C 329.761719 326.332031 329.886719 325.933594 329.964844 325.523438 C 330.046875 325.109375 330.089844 324.695312 330.089844 324.277344 L 330.089844 282.878906 L 366.054688 282.878906 C 366.296875 282.964844 366.542969 283.039062 366.789062 283.097656 C 367.039062 283.15625 367.292969 283.199219 367.546875 283.226562 C 367.800781 283.253906 368.054688 283.265625 368.308594 283.261719 C 368.566406 283.257812 368.820312 283.242188 369.074219 283.207031 C 369.328125 283.171875 369.578125 283.125 369.824219 283.0625 C 370.074219 282.996094 370.316406 282.917969 370.554688 282.828125 C 370.792969 282.734375 371.023438 282.628906 371.25 282.507812 C 371.476562 282.386719 371.691406 282.253906 371.902344 282.105469 C 372.113281 281.957031 372.3125 281.800781 372.5 281.628906 C 372.691406 281.457031 372.871094 281.277344 373.039062 281.085938 C 373.207031 280.890625 373.363281 280.691406 373.507812 280.480469 C 373.652344 280.269531 373.785156 280.050781 373.902344 279.824219 C 374.019531 279.59375 374.125 279.363281 374.214844 279.125 C 374.304688 278.882812 374.378906 278.640625 374.441406 278.390625 C 374.503906 278.144531 374.546875 277.890625 374.578125 277.636719 C 374.609375 277.382812 374.625 277.128906 374.625 276.875 C 374.625 276.617188 374.609375 276.363281 374.578125 276.109375 C 374.546875 275.855469 374.503906 275.605469 374.441406 275.355469 C 374.378906 275.109375 374.304688 274.863281 374.214844 274.625 C 374.125 274.386719 374.019531 274.152344 373.902344 273.925781 C 373.785156 273.699219 373.652344 273.480469 373.507812 273.269531 C 373.363281 273.058594 373.207031 272.855469 373.039062 272.664062 C 372.871094 272.472656 372.691406 272.289062 372.5 272.117188 C 372.3125 271.949219 372.113281 271.789062 371.902344 271.640625 C 371.691406 271.496094 371.476562 271.363281 371.25 271.242188 C 371.023438 271.121094 370.792969 271.015625 370.554688 270.921875 C 370.316406 270.828125 370.074219 270.75 369.824219 270.6875 C 369.578125 270.621094 369.328125 270.574219 369.074219 270.539062 C 368.820312 270.507812 368.566406 270.488281 368.308594 270.484375 C 368.054688 270.484375 367.800781 270.496094 367.546875 270.523438 C 367.292969 270.550781 367.039062 270.59375 366.789062 270.652344 C 366.542969 270.710938 366.296875 270.78125 366.054688 270.867188 L 330.027344 270.867188 L 330.027344 238.925781 L 366.054688 238.925781 C 366.476562 238.925781 366.890625 238.886719 367.300781 238.804688 C 367.714844 238.722656 368.113281 238.601562 368.5 238.441406 C 368.886719 238.28125 369.257812 238.082031 369.605469 237.851562 C 369.953125 237.617188 370.277344 237.351562 370.574219 237.054688 C 370.871094 236.757812 371.136719 236.4375 371.367188 236.085938 C 371.601562 235.738281 371.796875 235.371094 371.957031 234.984375 C 372.117188 234.59375 372.238281 234.195312 372.320312 233.785156 C 372.402344 233.375 372.445312 232.957031 372.445312 232.539062 C 372.445312 232.117188 372.402344 231.703125 372.320312 231.292969 C 372.238281 230.878906 372.117188 230.480469 371.957031 230.09375 C 371.796875 229.707031 371.601562 229.335938 371.367188 228.988281 C 371.136719 228.640625 370.871094 228.316406 370.574219 228.019531 C 370.277344 227.722656 369.953125 227.460938 369.605469 227.226562 C 369.257812 226.992188 368.886719 226.796875 368.5 226.636719 C 368.113281 226.476562 367.714844 226.355469 367.300781 226.273438 C 366.890625 226.191406 366.476562 226.148438 366.054688 226.148438 L 330.027344 226.148438 L 330.027344 194.207031 L 366.054688 194.207031 C 366.476562 194.207031 366.890625 194.167969 367.300781 194.085938 C 367.714844 194.003906 368.113281 193.882812 368.5 193.722656 C 368.886719 193.5625 369.257812 193.363281 369.605469 193.132812 C 369.953125 192.898438 370.277344 192.632812 370.574219 192.335938 C 370.871094 192.039062 371.136719 191.71875 371.367188 191.367188 C 371.601562 191.019531 371.796875 190.652344 371.957031 190.265625 C 372.117188 189.875 372.238281 189.476562 372.320312 189.066406 C 372.402344 188.652344 372.445312 188.238281 372.445312 187.820312 C 372.445312 187.398438 372.402344 186.984375 372.320312 186.574219 C 372.238281 186.160156 372.117188 185.761719 371.957031 185.375 C 371.796875 184.988281 371.601562 184.617188 371.367188 184.269531 C 371.136719 183.921875 370.871094 183.597656 370.574219 183.300781 C 370.277344 183.003906 369.953125 182.742188 369.605469 182.507812 C 369.257812 182.273438 368.886719 182.078125 368.5 181.917969 C 368.113281 181.757812 367.714844 181.636719 367.300781 181.554688 C 366.890625 181.472656 366.476562 181.429688 366.054688 181.429688 L 330.027344 181.429688 L 330.027344 149.488281 L 366.054688 149.488281 C 366.53125 149.617188 367.011719 149.691406 367.503906 149.707031 C 367.992188 149.726562 368.480469 149.6875 368.960938 149.59375 C 369.441406 149.5 369.90625 149.351562 370.355469 149.148438 C 370.800781 148.949219 371.222656 148.699219 371.613281 148.398438 C 372 148.101562 372.351562 147.761719 372.664062 147.382812 C 372.976562 147.003906 373.242188 146.59375 373.457031 146.15625 C 373.675781 145.714844 373.839844 145.253906 373.953125 144.777344 C 374.0625 144.300781 374.121094 143.816406 374.121094 143.324219 C 374.121094 142.832031 374.0625 142.347656 373.953125 141.871094 C 373.839844 141.394531 373.675781 140.933594 373.457031 140.492188 C 373.242188 140.054688 372.976562 139.644531 372.664062 139.265625 C 372.351562 138.886719 372 138.546875 371.613281 138.25 C 371.222656 137.949219 370.800781 137.699219 370.355469 137.5 C 369.90625 137.296875 369.441406 137.148438 368.960938 137.054688 C 368.480469 136.960938 367.992188 136.921875 367.503906 136.941406 C 367.011719 136.957031 366.53125 137.03125 366.054688 137.160156 L 330.027344 137.160156 L 330.027344 105.21875 Z M 293.164062 287.671875 C 293.164062 288.089844 293.125 288.503906 293.042969 288.917969 C 292.960938 289.328125 292.839844 289.726562 292.679688 290.113281 C 292.515625 290.503906 292.320312 290.871094 292.085938 291.21875 C 291.855469 291.566406 291.589844 291.890625 291.292969 292.1875 C 290.996094 292.484375 290.675781 292.75 290.324219 292.980469 C 289.976562 293.214844 289.609375 293.410156 289.21875 293.574219 C 288.832031 293.734375 288.433594 293.855469 288.023438 293.9375 C 287.609375 294.019531 287.195312 294.058594 286.777344 294.058594 L 87.328125 294.058594 C 86.910156 294.058594 86.496094 294.019531 86.082031 293.9375 C 85.671875 293.855469 85.273438 293.734375 84.886719 293.574219 C 84.496094 293.410156 84.128906 293.214844 83.78125 292.980469 C 83.429688 292.75 83.109375 292.484375 82.8125 292.1875 C 82.515625 291.890625 82.25 291.566406 82.019531 291.21875 C 81.785156 290.871094 81.589844 290.503906 81.425781 290.113281 C 81.265625 289.726562 81.144531 289.328125 81.0625 288.917969 C 80.980469 288.503906 80.941406 288.089844 80.941406 287.671875 L 80.941406 87.96875 C 80.941406 87.550781 80.980469 87.132812 81.0625 86.722656 C 81.144531 86.3125 81.265625 85.910156 81.425781 85.523438 C 81.589844 85.136719 81.785156 84.769531 82.019531 84.417969 C 82.25 84.070312 82.515625 83.746094 82.8125 83.453125 C 83.109375 83.15625 83.433594 82.890625 83.78125 82.65625 C 84.128906 82.421875 84.496094 82.226562 84.886719 82.066406 C 85.273438 81.90625 85.671875 81.785156 86.082031 81.703125 C 86.496094 81.621094 86.910156 81.578125 87.328125 81.578125 L 287.03125 81.578125 C 287.449219 81.578125 287.867188 81.621094 288.277344 81.703125 C 288.6875 81.785156 289.089844 81.90625 289.476562 82.066406 C 289.863281 82.226562 290.230469 82.421875 290.582031 82.65625 C 290.929688 82.890625 291.253906 83.15625 291.546875 83.453125 C 291.84375 83.746094 292.109375 84.070312 292.34375 84.417969 C 292.578125 84.769531 292.773438 85.136719 292.933594 85.523438 C 293.09375 85.910156 293.214844 86.3125 293.296875 86.722656 C 293.378906 87.132812 293.417969 87.550781 293.417969 87.96875 Z M 293.164062 287.671875 " fill-opacity="1" fill-rule="nonzero"/></svg>