<svg xmlns="http://www.w3.org/2000/svg" xmlns:xlink="http://www.w3.org/1999/xlink" width="500" zoomAndPan="magnify" viewBox="0 0 375 374.999991" height="500" preserveAspectRatio="xMidYMid meet" version="1.0"><defs><clipPath id="4fec8864f4"><path d="M 27.421875 0 L 347.671875 0 L 347.671875 375 L 27.421875 375 Z M 27.421875 0 " clip-rule="nonzero"/></clipPath></defs><g clip-path="url(#4fec8864f4)"><path fill="#ffffff" d="M 187.5 374.910156 C 186.417969 374.898438 185.378906 374.6875 184.375 374.285156 C 30.46875 306.816406 27.5 75.367188 27.5 65.527344 C 27.5 65.015625 27.550781 64.507812 27.648438 64.003906 C 27.75 63.503906 27.898438 63.015625 28.09375 62.539062 C 28.289062 62.066406 28.53125 61.617188 28.816406 61.191406 C 29.101562 60.765625 29.425781 60.371094 29.785156 60.007812 C 30.148438 59.644531 30.542969 59.320312 30.96875 59.035156 C 31.398438 58.75 31.847656 58.511719 32.320312 58.3125 C 32.792969 58.117188 33.28125 57.96875 33.785156 57.871094 C 34.289062 57.769531 34.796875 57.71875 35.308594 57.71875 C 112.378906 57.328125 181.175781 2.355469 181.800781 1.808594 C 183.214844 0.675781 184.828125 0.101562 186.640625 0.0898438 L 188.359375 0.0898438 C 190.203125 0.0820312 191.839844 0.65625 193.277344 1.808594 C 193.902344 2.355469 262.699219 57.328125 339.769531 57.71875 C 340.28125 57.71875 340.789062 57.769531 341.292969 57.871094 C 341.796875 57.96875 342.285156 58.117188 342.757812 58.3125 C 343.230469 58.511719 343.679688 58.75 344.109375 59.035156 C 344.535156 59.320312 344.929688 59.644531 345.289062 60.007812 C 345.652344 60.371094 345.976562 60.765625 346.261719 61.191406 C 346.546875 61.617188 346.789062 62.066406 346.984375 62.539062 C 347.179688 63.015625 347.328125 63.503906 347.429688 64.003906 C 347.527344 64.507812 347.578125 65.015625 347.578125 65.527344 C 347.578125 75.367188 344.609375 306.816406 190.703125 374.285156 C 189.675781 374.699219 188.609375 374.90625 187.5 374.910156 Z M 43.351562 73.101562 C 45.226562 113.238281 60.84375 300.179688 187.5 358.511719 C 314.15625 300.179688 329.773438 113.238281 331.648438 73.101562 C 262.542969 69.746094 203.117188 28.984375 187.5 17.113281 C 171.882812 28.984375 112.457031 69.746094 43.351562 73.101562 Z M 43.351562 73.101562 " fill-opacity="1" fill-rule="nonzero"/></g><path fill="#ffffff" d="M 187.5 324.308594 C 186.410156 324.335938 185.371094 324.128906 184.375 323.683594 C 72.476562 274.722656 70.371094 106.992188 70.371094 99.886719 C 70.371094 99.375 70.417969 98.867188 70.519531 98.363281 C 70.621094 97.859375 70.769531 97.371094 70.964844 96.898438 C 71.160156 96.425781 71.402344 95.972656 71.6875 95.546875 C 71.96875 95.121094 72.292969 94.726562 72.65625 94.363281 C 73.019531 94.003906 73.414062 93.679688 73.839844 93.394531 C 74.265625 93.109375 74.714844 92.867188 75.191406 92.671875 C 75.664062 92.476562 76.152344 92.328125 76.65625 92.226562 C 77.15625 92.128906 77.664062 92.078125 78.179688 92.078125 C 132.839844 92.078125 181.566406 53.035156 182.035156 52.410156 C 183.472656 51.257812 185.109375 50.683594 186.953125 50.691406 L 188.203125 50.691406 C 190.046875 50.683594 191.683594 51.257812 193.121094 52.410156 C 193.589844 52.800781 242.394531 91.453125 296.976562 92.078125 C 297.492188 92.078125 298 92.128906 298.5 92.226562 C 299.003906 92.328125 299.492188 92.476562 299.964844 92.671875 C 300.441406 92.867188 300.890625 93.109375 301.316406 93.394531 C 301.742188 93.679688 302.136719 94.003906 302.5 94.363281 C 302.863281 94.726562 303.1875 95.121094 303.46875 95.546875 C 303.753906 95.972656 303.996094 96.425781 304.191406 96.898438 C 304.386719 97.371094 304.535156 97.859375 304.636719 98.363281 C 304.738281 98.867188 304.785156 99.375 304.785156 99.886719 C 304.785156 106.992188 302.679688 274.722656 190.78125 323.683594 C 189.734375 324.152344 188.644531 324.359375 187.5 324.308594 Z M 85.988281 107.382812 C 87.78125 139.789062 100.355469 266.992188 187.5 307.988281 C 274.566406 266.992188 286.984375 139.789062 289.011719 107.382812 C 241.457031 104.335938 200.773438 77.398438 187.5 67.792969 C 174.460938 77.398438 133.777344 104.335938 85.988281 107.382812 Z M 85.988281 107.382812 " fill-opacity="1" fill-rule="nonzero"/><path fill="#ffffff" d="M 221 180.941406 L 154 180.941406 C 153.488281 180.941406 152.980469 180.890625 152.476562 180.789062 C 151.972656 180.691406 151.484375 180.542969 151.011719 180.347656 C 150.539062 180.148438 150.089844 179.910156 149.664062 179.625 C 149.234375 179.339844 148.839844 179.015625 148.480469 178.652344 C 148.117188 178.292969 147.792969 177.898438 147.507812 177.46875 C 147.222656 177.042969 146.984375 176.59375 146.785156 176.121094 C 146.589844 175.648438 146.441406 175.160156 146.34375 174.65625 C 146.242188 174.152344 146.191406 173.644531 146.191406 173.132812 L 146.191406 157.515625 C 146.203125 156.191406 146.28125 154.871094 146.421875 153.554688 C 146.566406 152.238281 146.769531 150.929688 147.039062 149.632812 C 147.308594 148.335938 147.640625 147.054688 148.035156 145.792969 C 148.429688 144.527344 148.882812 143.285156 149.398438 142.066406 C 149.914062 140.847656 150.488281 139.652344 151.121094 138.492188 C 151.753906 137.328125 152.441406 136.195312 153.183594 135.097656 C 153.925781 134.003906 154.71875 132.945312 155.566406 131.925781 C 156.410156 130.90625 157.304688 129.929688 158.246094 129 C 159.1875 128.066406 160.171875 127.183594 161.199219 126.347656 C 162.222656 125.511719 163.289062 124.726562 164.394531 123.996094 C 165.496094 123.265625 166.632812 122.589844 167.804688 121.96875 C 168.972656 121.347656 170.171875 120.785156 171.394531 120.28125 C 172.621094 119.777344 173.867188 119.335938 175.136719 118.953125 C 176.402344 118.570312 177.6875 118.25 178.984375 117.992188 C 180.285156 117.738281 181.59375 117.542969 182.910156 117.414062 C 184.230469 117.285156 185.550781 117.222656 186.875 117.222656 L 188.125 117.222656 C 189.457031 117.222656 190.785156 117.285156 192.113281 117.417969 C 193.4375 117.546875 194.753906 117.742188 196.0625 118.003906 C 197.367188 118.261719 198.660156 118.585938 199.933594 118.972656 C 201.210938 119.359375 202.460938 119.808594 203.695312 120.320312 C 204.925781 120.828125 206.128906 121.398438 207.300781 122.027344 C 208.476562 122.652344 209.621094 123.339844 210.726562 124.078125 C 211.835938 124.820312 212.902344 125.609375 213.933594 126.457031 C 214.964844 127.300781 215.949219 128.195312 216.890625 129.136719 C 217.835938 130.078125 218.726562 131.066406 219.574219 132.097656 C 220.417969 133.125 221.210938 134.195312 221.953125 135.300781 C 222.691406 136.410156 223.375 137.550781 224.003906 138.726562 C 224.632812 139.902344 225.203125 141.105469 225.710938 142.335938 C 226.222656 143.566406 226.667969 144.820312 227.054688 146.09375 C 227.441406 147.371094 227.765625 148.660156 228.027344 149.96875 C 228.285156 151.273438 228.480469 152.589844 228.613281 153.917969 C 228.742188 155.242188 228.808594 156.574219 228.808594 157.90625 L 228.808594 173.523438 C 228.78125 174.019531 228.710938 174.507812 228.59375 174.988281 C 228.476562 175.472656 228.3125 175.941406 228.105469 176.390625 C 227.898438 176.84375 227.648438 177.269531 227.359375 177.675781 C 227.070312 178.078125 226.746094 178.449219 226.386719 178.792969 C 226.027344 179.136719 225.636719 179.441406 225.21875 179.707031 C 224.800781 179.976562 224.363281 180.203125 223.898438 180.386719 C 223.4375 180.570312 222.964844 180.707031 222.476562 180.800781 C 221.988281 180.894531 221.496094 180.941406 221 180.941406 Z M 161.808594 165.324219 L 213.191406 165.324219 L 213.191406 157.515625 C 213.179688 156.703125 213.125 155.890625 213.035156 155.082031 C 212.941406 154.277344 212.8125 153.476562 212.644531 152.679688 C 212.472656 151.886719 212.265625 151.101562 212.019531 150.324219 C 211.773438 149.550781 211.492188 148.789062 211.171875 148.042969 C 210.851562 147.292969 210.496094 146.566406 210.105469 145.851562 C 209.714844 145.140625 209.289062 144.449219 208.832031 143.777344 C 208.375 143.105469 207.882812 142.457031 207.363281 141.832031 C 206.839844 141.210938 206.292969 140.613281 205.710938 140.042969 C 205.132812 139.472656 204.527344 138.929688 203.894531 138.417969 C 203.265625 137.910156 202.609375 137.429688 201.929688 136.980469 C 201.25 136.535156 200.554688 136.121094 199.835938 135.742188 C 199.117188 135.359375 198.378906 135.015625 197.628906 134.710938 C 196.875 134.402344 196.109375 134.128906 195.332031 133.898438 C 194.554688 133.664062 193.765625 133.46875 192.96875 133.3125 C 192.167969 133.152344 191.367188 133.035156 190.558594 132.957031 C 189.75 132.878906 188.9375 132.839844 188.125 132.839844 L 186.875 132.839844 C 186.054688 132.839844 185.234375 132.878906 184.417969 132.960938 C 183.601562 133.039062 182.789062 133.160156 181.984375 133.320312 C 181.179688 133.480469 180.382812 133.679688 179.597656 133.917969 C 178.8125 134.15625 178.042969 134.433594 177.28125 134.746094 C 176.523438 135.0625 175.785156 135.410156 175.058594 135.800781 C 174.335938 136.1875 173.632812 136.609375 172.949219 137.0625 C 172.265625 137.519531 171.609375 138.007812 170.972656 138.527344 C 170.339844 139.050781 169.730469 139.601562 169.152344 140.179688 C 168.570312 140.761719 168.019531 141.367188 167.5 142.003906 C 166.976562 142.636719 166.488281 143.296875 166.035156 143.980469 C 165.578125 144.660156 165.15625 145.363281 164.769531 146.089844 C 164.382812 146.8125 164.03125 147.554688 163.71875 148.3125 C 163.402344 149.070312 163.128906 149.84375 162.890625 150.628906 C 162.652344 151.414062 162.453125 152.210938 162.292969 153.015625 C 162.132812 153.820312 162.011719 154.632812 161.929688 155.449219 C 161.851562 156.265625 161.808594 157.085938 161.808594 157.90625 Z M 161.808594 165.324219 " fill-opacity="1" fill-rule="nonzero"/><path fill="#ffffff" d="M 229.355469 245.519531 L 145.644531 245.519531 C 145.132812 245.519531 144.625 245.46875 144.121094 245.367188 C 143.617188 245.269531 143.128906 245.121094 142.65625 244.925781 C 142.183594 244.726562 141.734375 244.488281 141.308594 244.203125 C 140.878906 243.917969 140.488281 243.59375 140.125 243.230469 C 139.761719 242.867188 139.4375 242.472656 139.152344 242.046875 C 138.867188 241.621094 138.628906 241.171875 138.429688 240.699219 C 138.234375 240.222656 138.085938 239.734375 137.988281 239.234375 C 137.886719 238.730469 137.835938 238.222656 137.835938 237.710938 L 137.835938 173.132812 C 137.835938 172.621094 137.886719 172.113281 137.988281 171.609375 C 138.085938 171.105469 138.234375 170.617188 138.429688 170.144531 C 138.628906 169.671875 138.867188 169.21875 139.152344 168.792969 C 139.4375 168.367188 139.761719 167.972656 140.125 167.609375 C 140.488281 167.246094 140.878906 166.925781 141.308594 166.640625 C 141.734375 166.355469 142.183594 166.113281 142.65625 165.917969 C 143.132812 165.722656 143.621094 165.574219 144.121094 165.472656 C 144.625 165.375 145.132812 165.324219 145.644531 165.324219 L 229.355469 165.324219 C 229.867188 165.324219 230.375 165.375 230.878906 165.472656 C 231.378906 165.574219 231.867188 165.722656 232.34375 165.917969 C 232.816406 166.113281 233.265625 166.355469 233.691406 166.640625 C 234.117188 166.925781 234.511719 167.246094 234.875 167.609375 C 235.238281 167.972656 235.5625 168.367188 235.847656 168.792969 C 236.132812 169.21875 236.371094 169.671875 236.570312 170.144531 C 236.765625 170.617188 236.914062 171.105469 237.011719 171.609375 C 237.113281 172.113281 237.164062 172.621094 237.164062 173.132812 L 237.164062 237.710938 C 237.164062 238.222656 237.113281 238.730469 237.011719 239.234375 C 236.914062 239.734375 236.765625 240.222656 236.570312 240.699219 C 236.371094 241.171875 236.132812 241.621094 235.847656 242.046875 C 235.5625 242.472656 235.238281 242.867188 234.875 243.230469 C 234.511719 243.59375 234.117188 243.917969 233.691406 244.203125 C 233.265625 244.488281 232.816406 244.726562 232.34375 244.925781 C 231.867188 245.121094 231.378906 245.269531 230.878906 245.367188 C 230.375 245.46875 229.867188 245.519531 229.355469 245.519531 Z M 153.453125 229.902344 L 221.546875 229.902344 L 221.546875 180.941406 L 153.453125 180.941406 Z M 153.453125 229.902344 " fill-opacity="1" fill-rule="nonzero"/></svg>