<svg width="34" height="34" viewBox="0 0 34 34" fill="none" xmlns="http://www.w3.org/2000/svg">
<path d="M27.0318 29.5436L28.0137 8.73946H29.4366C30.0201 8.73946 30.4896 8.25563 30.4896 7.67223C30.4896 7.08882 30.0201 6.59078 29.4366 6.59078H23.2182V4.45625C23.2182 2.42141 21.8379 1.09802 19.6465 1.09802H14.3245C12.1331 1.09802 10.767 2.42141 10.767 4.45625V6.59078H4.577C4.0078 6.59078 3.50977 7.08882 3.50977 7.67223C3.50977 8.25563 4.0078 8.73946 4.577 8.73946H6.00002L6.98183 29.5578C7.08147 31.607 8.43333 32.9019 10.4824 32.9019H23.5313C25.5662 32.9019 26.9322 31.5927 27.0318 29.5436ZM13.0438 4.59857C13.0438 3.78748 13.6415 3.21829 14.4953 3.21829H19.4899C20.358 3.21829 20.9557 3.78748 20.9557 4.59857V6.59078H13.0438V4.59857ZM10.6959 30.7674C9.87056 30.7674 9.25862 30.1412 9.21594 29.316L8.21986 8.73946H25.7369L24.7977 29.316C24.755 30.1555 24.1574 30.7674 23.3178 30.7674H10.6959ZM21.226 28.2629C21.6956 28.2629 22.0514 27.8787 22.0656 27.3379L22.4925 12.3112C22.5067 11.7704 22.1367 11.372 21.6529 11.372C21.2118 11.372 20.8418 11.7847 20.8276 12.297L20.4007 27.3379C20.3865 27.8503 20.7422 28.2629 21.226 28.2629ZM12.7877 28.2629C13.2715 28.2629 13.6273 27.8503 13.613 27.3379L13.1861 12.297C13.1719 11.7847 12.7877 11.372 12.3465 11.372C11.8627 11.372 11.507 11.7704 11.5212 12.3112L11.9623 27.3379C11.9766 27.8787 12.3181 28.2629 12.7877 28.2629ZM17.8678 27.3379V12.297C17.8678 11.7847 17.4835 11.372 17.014 11.372C16.5443 11.372 16.1459 11.7847 16.1459 12.297V27.3379C16.1459 27.8503 16.5443 28.2629 17.014 28.2629C17.4693 28.2629 17.8678 27.8503 17.8678 27.3379Z" fill="#DDDDDD"/>
</svg>
