<svg xmlns="http://www.w3.org/2000/svg" xmlns:xlink="http://www.w3.org/1999/xlink" width="500" zoomAndPan="magnify" viewBox="0 0 375 374.999991" height="500" preserveAspectRatio="xMidYMid meet" version="1.0"><defs><clipPath id="86ded4dd3b"><path d="M 132.207031 306 L 242.457031 306 L 242.457031 375 L 132.207031 375 Z M 132.207031 306 " clip-rule="nonzero"/></clipPath></defs><g clip-path="url(#86ded4dd3b)"><path fill="#ffffff" d="M 283.257812 306.222656 L 283.097656 311.339844 C 282.980469 314.859375 279.242188 396.535156 191.097656 398.5625 C 102.953125 396.535156 99.210938 314.859375 99.097656 311.339844 L 98.933594 306.207031 L -17.230469 306.207031 L -17.230469 316.789062 L 88.976562 316.789062 C 91.328125 336.402344 105.660156 405.476562 187.914062 408.980469 L 187.914062 409.320312 C 189.03125 409.320312 190.007812 409.175781 191.097656 409.160156 C 192.191406 409.175781 193.164062 409.320312 194.277344 409.320312 L 194.277344 408.980469 C 276.523438 405.476562 290.859375 336.402344 293.21875 316.789062 L 399.429688 316.789062 L 399.429688 306.207031 Z M 283.257812 306.222656 " fill-opacity="1" fill-rule="nonzero"/></g><path fill="#ffffff" d="M 191.097656 373.632812 C 217.746094 373.632812 239.351562 352.03125 239.351562 325.371094 C 239.351562 309.351562 231.457031 295.265625 219.445312 286.488281 L 191.097656 0.746094 L 162.761719 286.496094 C 150.738281 295.273438 142.851562 309.359375 142.851562 325.378906 C 142.84375 352.03125 164.449219 373.632812 191.097656 373.632812 Z M 191.097656 373.632812 " fill-opacity="1" fill-rule="nonzero"/></svg>