<svg xmlns="http://www.w3.org/2000/svg" xmlns:xlink="http://www.w3.org/1999/xlink" width="500" zoomAndPan="magnify" viewBox="0 0 375 374.999991" height="500" preserveAspectRatio="xMidYMid meet" version="1.0"><defs><clipPath id="f4f1cc7762"><path d="M 4.125 41.488281 L 370.875 41.488281 L 370.875 128 L 4.125 128 Z M 4.125 41.488281 " clip-rule="nonzero"/></clipPath><clipPath id="d46cc9a56c"><path d="M 4.125 144 L 370.875 144 L 370.875 231 L 4.125 231 Z M 4.125 144 " clip-rule="nonzero"/></clipPath><clipPath id="cd2108ade1"><path d="M 4.125 247 L 370.875 247 L 370.875 333.238281 L 4.125 333.238281 Z M 4.125 247 " clip-rule="nonzero"/></clipPath></defs><g clip-path="url(#f4f1cc7762)"><path fill="#ffffff" d="M 370.726562 67.253906 C 370.726562 52.9375 359.273438 41.488281 344.960938 41.488281 L 30.039062 41.488281 C 15.722656 41.488281 4.269531 52.9375 4.269531 67.253906 L 4.269531 101.609375 C 4.269531 115.921875 15.722656 127.375 30.039062 127.375 L 344.960938 127.375 C 359.273438 127.375 370.726562 115.921875 370.726562 101.609375 Z M 44.066406 101.320312 C 34.90625 101.320312 27.175781 93.59375 27.175781 84.429688 C 27.175781 74.984375 34.90625 67.539062 44.066406 67.539062 C 53.226562 67.539062 60.957031 75.269531 60.957031 84.429688 C 61.242188 93.59375 53.511719 101.320312 44.066406 101.320312 Z M 259.074219 87.292969 C 259.074219 95.308594 252.773438 101.609375 244.757812 101.609375 L 90.160156 101.609375 C 82.144531 101.609375 75.84375 95.308594 75.84375 87.292969 L 75.84375 81.566406 C 75.84375 73.550781 82.144531 67.253906 90.160156 67.253906 L 244.757812 67.253906 C 252.773438 67.253906 259.074219 73.550781 259.074219 81.566406 Z M 279.113281 95.882812 C 272.8125 95.882812 267.375 90.730469 267.375 84.144531 C 267.375 77.558594 272.527344 72.40625 279.113281 72.40625 C 285.699219 72.40625 290.851562 77.558594 290.851562 84.144531 C 290.851562 90.730469 285.410156 95.882812 279.113281 95.882812 Z M 307.742188 95.882812 C 301.445312 95.882812 296.003906 90.730469 296.003906 84.144531 C 296.003906 77.558594 301.15625 72.40625 307.742188 72.40625 C 314.328125 72.40625 319.480469 77.558594 319.480469 84.144531 C 319.480469 90.730469 314.039062 95.882812 307.742188 95.882812 Z M 336.371094 95.882812 C 330.074219 95.882812 324.632812 90.730469 324.632812 84.144531 C 324.632812 77.558594 329.785156 72.40625 336.371094 72.40625 C 342.957031 72.40625 348.109375 77.558594 348.109375 84.144531 C 348.109375 90.730469 342.671875 95.882812 336.371094 95.882812 Z M 336.371094 95.882812 " fill-opacity="1" fill-rule="nonzero"/></g><g clip-path="url(#d46cc9a56c)"><path fill="#ffffff" d="M 370.726562 170.320312 C 370.726562 156.003906 359.273438 144.550781 344.960938 144.550781 L 30.039062 144.550781 C 15.722656 144.550781 4.269531 156.003906 4.269531 170.320312 L 4.269531 204.675781 C 4.269531 218.988281 15.722656 230.441406 30.039062 230.441406 L 344.960938 230.441406 C 359.273438 230.441406 370.726562 218.988281 370.726562 204.675781 Z M 44.066406 204.386719 C 34.617188 204.386719 27.175781 196.65625 27.175781 187.496094 C 27.175781 178.335938 34.90625 170.605469 44.066406 170.605469 C 53.226562 170.605469 60.957031 178.335938 60.957031 187.496094 C 60.957031 196.65625 53.511719 204.386719 44.066406 204.386719 Z M 259.074219 190.359375 C 259.074219 198.375 252.773438 204.675781 244.757812 204.675781 L 90.160156 204.675781 C 82.144531 204.675781 75.84375 198.375 75.84375 190.359375 L 75.84375 184.632812 C 75.84375 176.617188 82.144531 170.320312 90.160156 170.320312 L 244.757812 170.320312 C 252.773438 170.320312 259.074219 176.617188 259.074219 184.632812 Z M 279.113281 198.949219 C 272.8125 198.949219 267.375 193.796875 267.375 187.210938 C 267.375 180.625 272.527344 175.472656 279.113281 175.472656 C 285.699219 175.472656 290.851562 180.625 290.851562 187.210938 C 290.851562 193.796875 285.410156 198.949219 279.113281 198.949219 Z M 307.742188 198.949219 C 301.445312 198.949219 296.003906 193.796875 296.003906 187.210938 C 296.003906 180.625 301.15625 175.472656 307.742188 175.472656 C 314.328125 175.472656 319.480469 180.625 319.480469 187.210938 C 319.480469 193.796875 314.039062 198.949219 307.742188 198.949219 Z M 336.371094 198.949219 C 330.074219 198.949219 324.632812 193.796875 324.632812 187.210938 C 324.632812 180.625 329.785156 175.472656 336.371094 175.472656 C 342.957031 175.472656 348.109375 180.625 348.109375 187.210938 C 348.109375 193.796875 342.671875 198.949219 336.371094 198.949219 Z M 336.371094 198.949219 " fill-opacity="1" fill-rule="nonzero"/></g><g clip-path="url(#cd2108ade1)"><path fill="#ffffff" d="M 370.726562 273.382812 C 370.726562 259.070312 359.273438 247.617188 344.960938 247.617188 L 30.039062 247.617188 C 15.722656 247.617188 4.269531 259.070312 4.269531 273.382812 L 4.269531 307.738281 C 4.269531 322.054688 15.722656 333.507812 30.039062 333.507812 L 344.960938 333.507812 C 359.273438 333.507812 370.726562 322.054688 370.726562 307.738281 Z M 44.066406 307.167969 C 34.617188 307.167969 27.175781 299.4375 27.175781 290.277344 C 27.175781 281.113281 34.90625 273.382812 44.066406 273.382812 C 53.226562 273.382812 60.957031 281.113281 60.957031 290.277344 C 61.242188 299.722656 53.511719 307.167969 44.066406 307.167969 Z M 259.074219 293.425781 C 259.074219 301.441406 252.773438 307.738281 244.757812 307.738281 L 90.160156 307.738281 C 82.144531 307.738281 75.84375 301.441406 75.84375 293.425781 L 75.84375 287.699219 C 75.84375 279.683594 82.144531 273.382812 90.160156 273.382812 L 244.757812 273.382812 C 252.773438 273.382812 259.074219 279.683594 259.074219 287.699219 Z M 279.113281 301.726562 C 272.8125 301.726562 267.375 296.574219 267.375 289.988281 C 267.375 283.40625 272.527344 278.25 279.113281 278.25 C 285.699219 278.25 290.851562 283.40625 290.851562 289.988281 C 290.851562 296.574219 285.410156 301.726562 279.113281 301.726562 Z M 307.742188 301.726562 C 301.445312 301.726562 296.003906 296.574219 296.003906 289.988281 C 296.003906 283.40625 301.15625 278.25 307.742188 278.25 C 314.328125 278.25 319.480469 283.40625 319.480469 289.988281 C 319.480469 296.574219 314.039062 301.726562 307.742188 301.726562 Z M 336.371094 301.726562 C 330.074219 301.726562 324.632812 296.574219 324.632812 289.988281 C 324.632812 283.40625 329.785156 278.25 336.371094 278.25 C 342.957031 278.25 348.109375 283.40625 348.109375 289.988281 C 348.109375 296.574219 342.671875 301.726562 336.371094 301.726562 Z M 336.371094 301.726562 " fill-opacity="1" fill-rule="nonzero"/></g></svg>